<svg id="Layer_1" data-name="Layer 1" xmlns="http://www.w3.org/2000/svg" viewBox="0 0 185 215.86"><defs><style>.cls-1{fill:#0052a1;}</style></defs><title>about</title><path class="cls-1" d="M95.75,72.72A26.92,26.92,0,1,1,122.67,45.8,26.95,26.95,0,0,1,95.75,72.72Zm0-48.93a22,22,0,1,0,22,22A22,22,0,0,0,95.75,23.79Z" transform="translate(-2.5 -2.07)"/><path class="cls-1" d="M118.11,217.93H73.42c-2.64,0-4.91-2.93-4.91-5.32V155.13c-3.43-3.51-8.39-9.15-8.39-12.47V89.89C60.12,84.42,65,78,78.53,78h33.19c12.72,0,19.58,6.11,19.58,11.86l.07,52.77c0,3.32-5,9-8.46,12.47v57.48C122.92,215,120.77,217.93,118.11,217.93ZM73.75,213h44a1.32,1.32,0,0,0,.25-.46V153.09l.73-.72c3.93-3.89,7.54-8.46,7.74-9.78l-.08-52.69c0-2.19-3.7-7-14.67-7H78.53c-9.33,0-13.5,3.49-13.5,7v52.77c.19,1.25,3.77,5.82,7.67,9.72l.72.72v59.51A2.06,2.06,0,0,0,73.75,213Z" transform="translate(-2.5 -2.07)"/><path class="cls-1" d="M38.13,55.91A26.92,26.92,0,1,1,65.05,29,27,27,0,0,1,38.13,55.91ZM38.13,7a22,22,0,1,0,22,22A22,22,0,0,0,38.13,7Z" transform="translate(-2.5 -2.07)"/><path class="cls-1" d="M20.91,66.13H59.79V61.22H20.91C7.32,61.22,2.5,67.62,2.5,73.09v52.77c0,3.31,5,9,8.38,12.46v57.49c0,2.39,2.27,5.31,4.91,5.31h44l0-4.9H16.12a3,3,0,0,1-.33-.41V136.29l-.72-.72c-3.89-3.89-7.47-8.46-7.66-9.72V73.09C7.41,69.63,11.58,66.13,20.91,66.13Z" transform="translate(-2.5 -2.07)"/><path class="cls-1" d="M125,29a26.93,26.93,0,1,1,26.92,26.92A27,27,0,0,1,125,29Zm4.91,0a22,22,0,1,0,22-22A22,22,0,0,0,129.86,29Z" transform="translate(-2.5 -2.07)"/><path class="cls-1" d="M169.09,66.13H130.21V61.22h38.88c13.59,0,18.41,6.4,18.41,11.87v52.77c0,3.31-5,9-8.38,12.46v57.49c0,2.39-2.27,5.31-4.91,5.31h-44v-4.9h43.67a3,3,0,0,0,.33-.41V136.29l.72-.72c3.89-3.89,7.47-8.46,7.66-9.72V73.09C182.59,69.63,178.42,66.13,169.09,66.13Z" transform="translate(-2.5 -2.07)"/></svg>