<svg fill="#0052A1" xmlns="http://www.w3.org/2000/svg" xmlns:xlink="http://www.w3.org/1999/xlink" version="1.1" x="0px" y="0px" viewBox="0 0 100 100" enable-background="new 0 0 100 100" xml:space="preserve"><g><path d="M48.626,34.553c-6.182,0-11.212-5.029-11.212-11.212s5.029-11.212,11.212-11.212c6.182,0,11.212,5.029,11.212,11.212   S54.808,34.553,48.626,34.553z M48.626,14.174c-5.055,0-9.168,4.113-9.168,9.168s4.113,9.168,9.168,9.168s9.168-4.113,9.168-9.168   S53.681,14.174,48.626,14.174z"></path><path d="M57.937,95.029H39.325c-1.101,0-2.045-1.218-2.045-2.215V68.873c-1.427-1.459-3.492-3.811-3.492-5.191V41.705   c0-2.279,2.008-4.941,7.666-4.941l13.821,0c5.298,0,8.155,2.546,8.155,4.941l0.032,21.976c0,1.383-2.084,3.734-3.525,5.195v23.938   C59.939,93.817,59.046,95.029,57.937,95.029z M39.461,92.984h18.33c0.047-0.056,0.096-0.142,0.104-0.191l-0.001-24.768l0.302-0.299   c1.636-1.622,3.142-3.525,3.223-4.072l-0.033-21.948c0-0.909-1.539-2.898-6.111-2.898l-13.821,0c-3.884,0-5.622,1.455-5.622,2.896   v21.977c0.078,0.521,1.57,2.425,3.193,4.048l0.299,0.299v24.785C39.336,92.837,39.402,92.927,39.461,92.984z"></path><path d="M24.626,27.553c-6.182,0-11.212-5.029-11.212-11.212S18.443,5.129,24.626,5.129c6.182,0,11.212,5.029,11.212,11.212   S30.808,27.553,24.626,27.553z M24.626,7.174c-5.055,0-9.168,4.113-9.168,9.168s4.113,9.168,9.168,9.168s9.168-4.113,9.168-9.168   S29.681,7.174,24.626,7.174z"></path><path d="M17.455,31.809l16.195,0v-2.044l-16.195,0c-5.658,0-7.666,2.662-7.666,4.941v21.977c0,1.38,2.065,3.731,3.492,5.191v23.941   c0,0.997,0.944,2.215,2.045,2.215h18.319l0.006-2.044H15.461c-0.059-0.057-0.125-0.148-0.136-0.171V61.029l-0.299-0.299   c-1.623-1.623-3.115-3.527-3.193-4.048V34.705C11.833,33.264,13.571,31.809,17.455,31.809z"></path><path d="M60.788,16.341c0-6.182,5.03-11.212,11.212-11.212c6.182,0,11.212,5.029,11.212,11.212S78.183,27.553,72,27.553   C65.818,27.553,60.788,22.524,60.788,16.341z M62.833,16.341c0,5.055,4.113,9.168,9.168,9.168c5.055,0,9.168-4.113,9.168-9.168   S77.055,7.174,72,7.174C66.945,7.174,62.833,11.286,62.833,16.341z"></path><path d="M79.171,31.809l-16.195,0v-2.044l16.195,0c5.658,0,7.666,2.662,7.666,4.941v21.977c0,1.38-2.065,3.731-3.492,5.191v23.941   c0,0.997-0.944,2.215-2.045,2.215H62.982l-0.006-2.044h18.189c0.059-0.057,0.125-0.148,0.136-0.171V61.029l0.299-0.299   c1.623-1.623,3.115-3.527,3.193-4.048V34.705C84.793,33.264,83.055,31.809,79.171,31.809z"></path></g></svg>