<svg id="Layer_1" data-name="Layer 1" xmlns="http://www.w3.org/2000/svg" viewBox="0 0 272.15 272.15"><defs><style>.cls-1{opacity:0.1;}.cls-2{fill:#f84a00;}.cls-3{opacity:0.2;}</style></defs><title>circle-fax</title><path d="M203.05,169H173.21a1.54,1.54,0,0,1-1.55-1.54V135H101.31v32.47A1.54,1.54,0,0,1,99.76,169H69.92a9.21,9.21,0,0,1-9.19-9.21V97a9.21,9.21,0,0,1,9.19-9.21H203.05A9.23,9.23,0,0,1,212.27,97v62.78A9.23,9.23,0,0,1,203.05,169Zm-28.3-3.09h28.3a6.12,6.12,0,0,0,6.12-6.12V97a6.12,6.12,0,0,0-6.12-6.12H69.92A6.11,6.11,0,0,0,63.83,97v62.78a6.11,6.11,0,0,0,6.09,6.12h28.3V133.4a1.55,1.55,0,0,1,1.54-1.55h73.45a1.55,1.55,0,0,1,1.54,1.55Z" transform="translate(-0.43 -0.43)"/><path d="M173.21,90.85H99.76a1.54,1.54,0,0,1-1.54-1.55V65.22a1.55,1.55,0,0,1,1.54-1.55h73.45a1.55,1.55,0,0,1,1.54,1.55V89.3A1.54,1.54,0,0,1,173.21,90.85Zm-71.9-3.09h70.35v-21H101.31Z" transform="translate(-0.43 -0.43)"/><path d="M184.61,134.93H88.36a1.55,1.55,0,1,1,0-3.09h96.25a1.55,1.55,0,1,1,0,3.09Z" transform="translate(-0.43 -0.43)"/><path d="M173.21,203.72H99.76a1.54,1.54,0,0,1-1.54-1.54V133.4a1.55,1.55,0,0,1,1.54-1.55h73.45a1.55,1.55,0,0,1,1.54,1.55v68.78A1.54,1.54,0,0,1,173.21,203.72Zm-71.9-3.09h70.35V135H101.31Z" transform="translate(-0.43 -0.43)"/><path d="M182.64,104.92a2.09,2.09,0,0,1-.59-.13,1.6,1.6,0,0,1-.49-.34,1.49,1.49,0,0,1-.34-.49,1.79,1.79,0,0,1-.13-.59,1.64,1.64,0,0,1,.13-.59,1.42,1.42,0,0,1,.34-.52,1.61,1.61,0,0,1,1.7-.31,1.5,1.5,0,0,1,.49.31,1.66,1.66,0,0,1,.43,1.11,2,2,0,0,1-.09.59,2.14,2.14,0,0,1-.34.49A1.65,1.65,0,0,1,182.64,104.92Z" transform="translate(-0.43 -0.43)"/><path d="M198.1,104.92a2.16,2.16,0,0,1-.59-.13,1.6,1.6,0,0,1-.49-.34,1.49,1.49,0,0,1-.34-.49,2.09,2.09,0,0,1-.13-.59,1.71,1.71,0,0,1,.47-1.11,1.5,1.5,0,0,1,.49-.31,1.57,1.57,0,0,1,1.7.31,1.67,1.67,0,0,1,.44,1.11,1.74,1.74,0,0,1-.1.59,2.14,2.14,0,0,1-.34.49,1.35,1.35,0,0,1-.52.34A1.88,1.88,0,0,1,198.1,104.92Z" transform="translate(-0.43 -0.43)"/><path d="M137.58,148.27H111.65a1.55,1.55,0,1,1,0-3.09h25.93a1.55,1.55,0,1,1,0,3.09Z" transform="translate(-0.43 -0.43)"/><path d="M161.32,168.27H111.65a1.55,1.55,0,1,1,0-3.09h49.67a1.55,1.55,0,1,1,0,3.09Z" transform="translate(-0.43 -0.43)"/><path d="M161.32,188.28H111.65a1.55,1.55,0,0,1,0-3.1h49.67a1.55,1.55,0,1,1,0,3.1Z" transform="translate(-0.43 -0.43)"/><g class="cls-1"><path class="cls-2" d="M136.5,272.57C61.57,272.57.43,211.43.43,136.5a136.07,136.07,0,0,1,272.14,0C272.57,211.43,211.43,272.57,136.5,272.57Zm0-261A124.89,124.89,0,1,0,261.39,136.5C261.39,67.53,205.1,11.61,136.5,11.61Z" transform="translate(-0.43 -0.43)"/></g><g class="cls-3"><path class="cls-2" d="M136.5,258.57c-67.22,0-122.07-54.85-122.07-122.07a122.07,122.07,0,0,1,244.14,0C258.57,203.72,203.72,258.57,136.5,258.57Zm0-234.11a112,112,0,1,0,112,112C248.54,74.63,198,24.46,136.5,24.46Z" transform="translate(-0.43 -0.43)"/></g></svg>