<svg id="Layer_1" data-name="Layer 1" xmlns="http://www.w3.org/2000/svg" viewBox="0 0 272.15 272.15"><defs><style>.cls-1{opacity:0.1;}.cls-2{fill:#f84a00;}.cls-3{opacity:0.2;}</style></defs><title>circle-text</title><path d="M148.61,185.39H125.13a5.57,5.57,0,0,0-5.61,5.6,5.7,5.7,0,0,0,5.61,5.6h23.48a5.6,5.6,0,0,0,0-11.2Zm0,8.19H125.13a2.59,2.59,0,1,1,0-5.17h23.48a2.59,2.59,0,1,1,0,5.17Z" transform="translate(-0.43 -0.43)"/><path d="M201,98.77H183.52V79.17a13.43,13.43,0,0,0-13.36-13.36H103.58A13.29,13.29,0,0,0,90.22,79.17V192.5a13.42,13.42,0,0,0,13.36,13.36h66.58a13.43,13.43,0,0,0,13.36-13.36V136.91H201ZM180.28,192.5a10.11,10.11,0,0,1-10.12,10.13H103.58A10.12,10.12,0,0,1,93.45,192.5V79.17A10.12,10.12,0,0,1,103.58,69h66.58a10.11,10.11,0,0,1,10.12,10.13v19.6H173V82.62a6.25,6.25,0,0,0-6.25-6.25H107a6.25,6.25,0,0,0-6.25,6.25v89.2a6.25,6.25,0,0,0,6.25,6.24h59.68a6.25,6.25,0,0,0,6.25-6.24V136.91h7.32Zm-36.62-55.59v12.93l14.43-12.93h11.64v34.91a3,3,0,0,1-3,3H107a2.94,2.94,0,0,1-3-3V82.62a2.94,2.94,0,0,1,3-3h59.68a3,3,0,0,1,3,3V98.77H134.82v38.14Zm54.08-3.23H156.8l-9.91,9v-9h-8.84V102H198v31.67Z" transform="translate(-0.43 -0.43)"/><rect x="148.62" y="109.55" width="35.77" height="3.23"/><rect x="148.62" y="120.97" width="28.44" height="3.23"/><g class="cls-1"><path class="cls-2" d="M136.5,272.57C61.57,272.57.43,211.43.43,136.5a136.07,136.07,0,0,1,272.14,0C272.57,211.43,211.43,272.57,136.5,272.57Zm0-261A124.89,124.89,0,1,0,261.39,136.5C261.39,67.53,205.1,11.61,136.5,11.61Z" transform="translate(-0.43 -0.43)"/></g><g class="cls-3"><path class="cls-2" d="M136.5,258.57c-67.22,0-122.07-54.85-122.07-122.07a122.07,122.07,0,0,1,244.14,0C258.57,203.72,203.72,258.57,136.5,258.57Zm0-234.11a112,112,0,1,0,112,112C248.54,74.63,198,24.46,136.5,24.46Z" transform="translate(-0.43 -0.43)"/></g></svg>