<svg id="Layer_1" data-name="Layer 1" xmlns="http://www.w3.org/2000/svg" viewBox="0 0 272.15 272.15"><defs><style>.cls-1{opacity:0.1;}.cls-2{fill:#f84a00;}.cls-3{opacity:0.2;}</style></defs><title>circle-email</title><path d="M171.05,140.91a1.57,1.57,0,0,1-1.58,1.57H103.53a1.57,1.57,0,0,1,0-3.14h65.94A1.57,1.57,0,0,1,171.05,140.91ZM136.5,112.64a1.58,1.58,0,0,0,0,3.15h33a1.58,1.58,0,1,0,0-3.15Zm33,13.35H103.53a1.57,1.57,0,0,0,0,3.14h65.94a1.57,1.57,0,1,0,0-3.14ZM204,132.37v57.56a11,11,0,0,1-11,11H80a11,11,0,0,1-7.27-2.76h-.08A11,11,0,0,1,69,189.93V132.37a11,11,0,0,1,3.25-7.85,1.62,1.62,0,0,1,.35-.54h0l3.89-3.89,3.45-3.46V102a1.57,1.57,0,0,1,.46-1.11L111.16,70.2a1.77,1.77,0,0,1,.45-.3h0a1.62,1.62,0,0,1,.61-.12h14.62l8.47-8.45a1.56,1.56,0,0,1,2.21,0L146,69.78h35.58A11.48,11.48,0,0,1,193,81.21v35.53l7.28,7.29a1.26,1.26,0,0,1,.19.28A11,11,0,0,1,204,132.37ZM193,121.2v7.85l4-4ZM181.55,72.89H113.84V92.17a11.48,11.48,0,0,1-11.48,11.48H83.11v28.73l20.34,20.42h66l20.42-20.42V117.61a1.46,1.46,0,0,1,0-.51V81.21A8.34,8.34,0,0,0,181.55,72.89Zm-15.22,82.94H106.57L116.78,166h39.33Zm-46.4,13.34,16.57,16.54L153,169.17ZM80,129.23v-8.14L79,122l-3.14,3.15Zm22.39-28.74a8.33,8.33,0,0,0,8.34-8.34V75.1L85.31,100.49Zm29-30.74h10.25l-5.07-5.14ZM72.12,189.93a7.83,7.83,0,0,0,1.67,4.71L107.4,161.1l-27-27h0l-6.61-6.62a7.87,7.87,0,0,0-1.7,4.86ZM193,197.78a7.69,7.69,0,0,0,3.72-1l-33.56-33.5-5.38,5.38h0L137.55,189a1.56,1.56,0,0,1-2.21,0l-25.72-25.65-33.43,33.5a7.82,7.82,0,0,0,3.78,1Zm7.85-65.41a7.86,7.86,0,0,0-1.74-4.92L192.57,134h0L165.49,161.1l33.68,33.67a7.89,7.89,0,0,0,1.71-4.84Z" transform="translate(-0.43 -0.43)"/><g class="cls-1"><path class="cls-2" d="M136.5,272.57C61.57,272.57.43,211.43.43,136.5a136.07,136.07,0,0,1,272.14,0C272.57,211.43,211.43,272.57,136.5,272.57Zm0-261A124.89,124.89,0,1,0,261.39,136.5C261.39,67.53,205.1,11.61,136.5,11.61Z" transform="translate(-0.43 -0.43)"/></g><g class="cls-3"><path class="cls-2" d="M136.5,258.57c-67.22,0-122.07-54.85-122.07-122.07a122.07,122.07,0,0,1,244.14,0C258.57,203.72,203.72,258.57,136.5,258.57Zm0-234.11a112,112,0,1,0,112,112C248.54,74.63,198,24.46,136.5,24.46Z" transform="translate(-0.43 -0.43)"/></g></svg>