<svg fill="#0052A1" xmlns="http://www.w3.org/2000/svg" xmlns:xlink="http://www.w3.org/1999/xlink" version="1.1" x="0px" y="0px" viewBox="0 0 100 100" enable-background="new 0 0 100 100" xml:space="preserve"><g><polygon points="51.381,34.737 48.881,34.737 48.881,51.815 65,51.815 65,49.315 51.381,49.315  "></polygon><path d="M81.134,44.195l6.968,10.135l6.06-10.205l-2.15-1.276l-2.723,4.586C87.961,26.984,70.911,10.75,50.131,10.75   c-21.643,0-39.25,17.607-39.25,39.25s17.607,39.25,39.25,39.25c12.483,0,24.338-6.025,31.713-16.118l-2.02-1.475   c-6.905,9.45-18.006,15.093-29.693,15.093c-20.264,0-36.75-16.486-36.75-36.75c0-20.264,16.486-36.75,36.75-36.75   c19.615,0,35.69,15.448,36.699,34.817l-3.636-5.288L81.134,44.195z"></path><path d="M50.131,21c-16.267,0-29.5,13.233-29.5,29.5S33.864,80,50.131,80s29.5-13.233,29.5-29.5S66.397,21,50.131,21z    M51.25,77.472V72h-2.5v5.465c-13.856-0.701-24.986-11.898-25.589-25.78h5.404v-2.5h-5.401   c0.669-13.865,11.844-25.017,25.717-25.653V29h2.5v-5.468c13.917,0.638,25.115,11.859,25.72,25.784h-5.535v2.5h5.532   C76.427,65.724,65.184,76.9,51.25,77.472z"></path></g></svg>