<svg id="Layer_1" data-name="Layer 1" xmlns="http://www.w3.org/2000/svg" viewBox="0 0 814.9 1059.34"><defs><style>.cls-1,.cls-7{font-size:18.7px;}.cls-1{font-family:Ubuntu, Ubuntu;}.cls-2{letter-spacing:0.02em;}.cls-3{letter-spacing:-0.01em;}.cls-4{letter-spacing:0.02em;}.cls-5{letter-spacing:-0.03em;}.cls-27,.cls-28,.cls-6{fill:none;stroke:#000;stroke-miterlimit:10;}.cls-6{stroke-linecap:round;stroke-width:5px;}.cls-7{font-family:MyriadPro-Regular, Myriad Pro;}.cls-8{letter-spacing:-0.01em;}.cls-9{letter-spacing:-0.01em;}.cls-10{letter-spacing:0em;}.cls-11{letter-spacing:0em;}.cls-12{letter-spacing:0.02em;}.cls-13{letter-spacing:0em;}.cls-14{letter-spacing:-0.01em;}.cls-15{letter-spacing:-0.01em;}.cls-16{letter-spacing:0em;}.cls-17{letter-spacing:0em;}.cls-18{letter-spacing:-0.01em;}.cls-19{letter-spacing:-0.04em;}.cls-20{letter-spacing:-0.07em;}.cls-21{letter-spacing:0em;}.cls-22{letter-spacing:-0.01em;}.cls-23{letter-spacing:0.01em;}.cls-24{letter-spacing:0em;}.cls-25{letter-spacing:0em;}.cls-26{letter-spacing:0em;}.cls-27{stroke-width:0.05px;}.cls-28{stroke-width:0.25px;}.cls-29{font-size:19.77px;font-family:Ubuntu-Bold, Ubuntu;font-weight:700;}.cls-30{letter-spacing:0.02em;}</style></defs><title>flowchart</title><path d="M410,243.89c-9.55,0-17.3,8.13-17.3,18.16s7.75,22.21,17.3,22.21" transform="translate(-5.55 -29.36)"/><path d="M410,284.26c9.55,0,17.3-12.19,17.3-22.21s-7.75-18.16-17.3-18.16" transform="translate(-5.55 -29.36)"/><path d="M444.08,300.85a22.74,22.74,0,0,0-19.21-18.54h-.12l-1-.11s0,.07,0,.1,0,.18,0,.28a4.85,4.85,0,0,1-.46,1.55c-1.65,4.14-6.92,11.94-10.12,16.49H413l-.64-9.2a5.41,5.41,0,0,0,2.24-2.18,4.28,4.28,0,0,0,.59-2.11,13.48,13.48,0,0,1-4.8,1.06h-.83a13.47,13.47,0,0,1-4.79-1.06,4.28,4.28,0,0,0,.59,2.11,5.47,5.47,0,0,0,2.24,2.18l-.64,9.2h-.15c-3.2-4.55-8.47-12.35-10.12-16.49a4.6,4.6,0,0,1-.46-1.55c0-.1,0-.19,0-.28s0-.07,0-.1l-.95.11h-.12a22.75,22.75,0,0,0-19.22,18.54,6,6,0,0,0-4.31,5.72v.14l0,.14L377,338.08a6,6,0,0,0,6,5.81H437a6,6,0,0,0,6-5.81l5.38-31.23,0-.14v-.14A6,6,0,0,0,444.08,300.85Zm-2.73,37.08a4.31,4.31,0,0,1-4.32,4.32H383a4.32,4.32,0,0,1-4.33-4.32l-5.4-31.36a4.31,4.31,0,0,1,4.32-4.32h64.88a4.32,4.32,0,0,1,4.32,4.32Z" transform="translate(-5.55 -29.36)"/><text class="cls-1" transform="translate(312.42 336.12)">Management reports <tspan x="-21.63" y="22.44">inju</tspan><tspan class="cls-2" x="9.3" y="22.44">r</tspan><tspan x="16.91" y="22.44">y in ManageMyInjuries</tspan></text><path d="M410,313.08a1.91,1.91,0,1,0,1.91,1.91A1.91,1.91,0,0,0,410,313.08Z" transform="translate(-5.55 -29.36)"/><text class="cls-1" transform="translate(325.78 108.79)">Empl<tspan class="cls-3" x="42.9" y="0">o</tspan><tspan x="53.67" y="0">yee notifies </tspan><tspan x="-15" y="22.44">Management of inju</tspan><tspan class="cls-4" x="155.44" y="22.44">r</tspan><tspan x="163.05" y="22.44">y</tspan></text><path d="M329.4,75.69c8.23,0,15.06-8.65,16.48-20.07h-33C314.34,67,321.18,75.69,329.4,75.69Z" transform="translate(-5.55 -29.36)"/><path d="M302.12,106.31V93.93a6.69,6.69,0,0,1,4-6.1V76.68a22.27,22.27,0,0,0-10.47,18.9C295.64,101.71,298.11,104.78,302.12,106.31Z" transform="translate(-5.55 -29.36)"/><path d="M323.42,87.27c-2.79-4.16-5.87-9-7.05-12a4.31,4.31,0,0,1-.45-1.51,2.7,2.7,0,0,1,0-.28s0-.06,0-.09l-.93.1-.12,0q-.36,0-.72.12V87.27Z" transform="translate(-5.55 -29.36)"/><path d="M331.73,82.43a5.4,5.4,0,0,0,2.2-2.14,4.25,4.25,0,0,0,.58-2.07,13.35,13.35,0,0,1-4.7,1H329a13.37,13.37,0,0,1-4.71-1,4.25,4.25,0,0,0,.58,2.07,5.46,5.46,0,0,0,2.2,2.14l-.34,4.84h5.34Z" transform="translate(-5.55 -29.36)"/><path d="M356.68,93.93v12.38c4-1.53,6.49-4.6,6.49-10.73a22.27,22.27,0,0,0-10.48-18.9V87.82A6.7,6.7,0,0,1,356.68,93.93Z" transform="translate(-5.55 -29.36)"/><path d="M344.7,73.62l-.72-.11-.11,0-.94-.1s0,.06,0,.09l0,.28a4.62,4.62,0,0,1-.46,1.51c-1.18,3-4.25,7.84-7.05,12h9.32V73.62Z" transform="translate(-5.55 -29.36)"/><path d="M349.23,49.86a2.45,2.45,0,0,0-2.45-2.45h-.67A16.72,16.72,0,0,0,337,32.5l-1.39,7.86a1.28,1.28,0,0,1-1.26,1.06l-.22,0a1.29,1.29,0,0,1-1-1.49l1.58-9a3.34,3.34,0,0,0-2.85-1.58H327a3.37,3.37,0,0,0-2.85,1.58l1.58,9a1.28,1.28,0,0,1-1,1.49h-.23a1.28,1.28,0,0,1-1.26-1l-1.38-7.86a16.71,16.71,0,0,0-9.17,14.91H312a2.46,2.46,0,0,0,0,4.91h34.76A2.45,2.45,0,0,0,349.23,49.86Z" transform="translate(-5.55 -29.36)"/><circle cx="304.02" cy="64.28" r="3.31"/><circle cx="343.13" cy="64.28" r="3.3"/><path d="M505.41,72.38h-.11l-.93-.11s0,.06,0,.09a2.66,2.66,0,0,1,0,.28,4.62,4.62,0,0,1-.45,1.5C502.26,78.2,497,85.91,494,90.3l-.64-9.11a5.25,5.25,0,0,0,2.17-2.11,4.14,4.14,0,0,0,.58-2,13.16,13.16,0,0,1-4.65,1h-.8A13.16,13.16,0,0,1,486,77a4.14,4.14,0,0,0,.58,2,5.25,5.25,0,0,0,2.17,2.11l-.64,9.11c-3.08-4.39-8.31-12.1-9.93-16.17a4.39,4.39,0,0,1-.45-1.5,2.51,2.51,0,0,1,0-.27s0-.07,0-.1l-.92.11h-.12a22,22,0,0,0-19,21.81c0,12.15,9.86,12.12,22,12.12h22.68c12.16,0,22,0,22-12.12A22,22,0,0,0,505.41,72.38Z" transform="translate(-5.55 -29.36)"/><path d="M491,29.36c-10.61,0-19.21,9-19.21,20.17S480.4,74.19,491,74.19" transform="translate(-5.55 -29.36)"/><path d="M491,74.19c10.61,0,19.21-13.53,19.21-24.66S501.62,29.36,491,29.36" transform="translate(-5.55 -29.36)"/><text class="cls-1" transform="translate(299.77 563.46)">ManageMyInjuries ta<tspan class="cls-5" x="176.96" y="0">k</tspan><tspan x="186.24" y="0">es </tspan><tspan x="-9.11" y="22.44">it from there and notifies...</tspan></text><path d="M464.27,470.26H355.82a3.45,3.45,0,0,0-3.54,3.35V546a3.57,3.57,0,0,0,3.54,3.49h42.7c0,1.09-.39,5.78-2.61,8.05-1.76,1.79-4.2,3.47-3.25,4.33.23.53,1.33.84,3.82.84h28.09c2.84,0,3.83-.47,3.84-1.16h-.1v-.23h-.1c-.12-.94-2-2.32-3.45-3.78-2.22-2.27-2.56-7-2.61-8h42.13a3.49,3.49,0,0,0,3.44-3.5V473.61A3.38,3.38,0,0,0,464.27,470.26ZM410,546.2a2.24,2.24,0,1,1,2.24-2.24A2.24,2.24,0,0,1,410,546.2Zm52.85-11.73H357.15V474.9h105.7v59.57Z" transform="translate(-5.55 -29.36)"/><polyline class="cls-6" points="403.94 611.12 404.9 727.61 404.95 844.1"/><line class="cls-6" x1="575.24" y1="728.07" x2="574.94" y2="844.17"/><line class="cls-6" x1="233.96" y1="727.16" x2="233.65" y2="844.03"/><path class="cls-6" d="M751.31,874.37l.29-109.49a7,7,0,0,0-7-7L75.69,756.09a7,7,0,0,0-7,7l-.29,109.48" transform="translate(-5.55 -29.36)"/><text class="cls-7" transform="translate(328.77 987.34)">the inju<tspan class="cls-8" x="59.5" y="0">r</tspan><tspan x="65.43" y="0">ed </tspan><tspan class="cls-9" x="89.31" y="0">w</tspan><tspan x="102.89" y="0">o</tspan><tspan class="cls-10" x="113.16" y="0">r</tspan><tspan x="119.35" y="0">ker </tspan><tspan x="-10.83" y="22.44">about clinic loc</tspan><tspan class="cls-11" x="106.87" y="22.44">a</tspan><tspan x="115.81" y="22.44">tions </tspan><tspan x="15.67" y="44.88">and pha</tspan><tspan class="cls-10" x="79.61" y="44.88">r</tspan><tspan x="85.8" y="44.88">ma</tspan><tspan class="cls-12" x="110.41" y="44.88">c</tspan><tspan class="cls-13" x="119.12" y="44.88">y </tspan><tspan x="30.65" y="67.32">first fill in</tspan><tspan class="cls-14" x="101.43" y="67.32">f</tspan><tspan x="106.65" y="67.32">o</tspan></text><text class="cls-7" transform="translate(189.16 987.34)">the Claims<tspan class="cls-15" x="-12.98" y="22.44">A</tspan><tspan x="-1.76" y="22.44">dminist</tspan><tspan class="cls-16" x="57.11" y="22.44">r</tspan><tspan class="cls-17" x="63.13" y="22.44">a</tspan><tspan class="cls-18" x="72.07" y="22.44">t</tspan><tspan x="78.15" y="22.44">or</tspan></text><text class="cls-7" transform="translate(0 987.34)">the<tspan class="cls-19" x="25.94" y="0"> </tspan><tspan class="cls-20" x="29.14" y="0">T</tspan><tspan class="cls-21" x="37.1" y="0">elephonic </tspan><tspan class="cls-22" x="4.34" y="22.44">C</tspan><tspan x="15.05" y="22.44">ase </tspan><tspan class="cls-23" x="44.81" y="22.44">M</tspan><tspan x="59.95" y="22.44">anager</tspan></text><text class="cls-7" transform="translate(513.06 987.34)">the Clini<tspan class="cls-9" x="64.29" y="0">c</tspan><tspan x="72.48" y="0">, and </tspan><tspan x="-8.44" y="22.44">sends t</tspan><tspan class="cls-8" x="46.82" y="22.44">r</tspan><tspan x="52.74" y="22.44">e</tspan><tspan class="cls-24" x="62.11" y="22.44">a</tspan><tspan class="cls-13" x="71.05" y="22.44">tme</tspan><tspan class="cls-24" x="102.21" y="22.44">n</tspan><tspan class="cls-13" x="112.51" y="22.44">t </tspan><tspan x="4.67" y="44.88">autho</tspan><tspan class="cls-25" x="50.83" y="44.88">r</tspan><tspan x="57.02" y="44.88">iz</tspan><tspan class="cls-11" x="69.4" y="44.88">a</tspan><tspan x="78.34" y="44.88">tion</tspan></text><text class="cls-7" transform="translate(688.41 987.34)">the PBM, and <tspan x="-19.73" y="22.44">first fill en</tspan><tspan class="cls-9" x="56.04" y="22.44">r</tspan><tspan x="61.97" y="22.44">ollme</tspan><tspan class="cls-11" x="106.03" y="22.44">n</tspan><tspan x="116.33" y="22.44">t </tspan><tspan x="5.91" y="44.88">is p</tspan><tspan class="cls-9" x="32.29" y="44.88">r</tspan><tspan x="38.22" y="44.88">o</tspan><tspan class="cls-18" x="48.49" y="44.88">c</tspan><tspan class="cls-26" x="56.76" y="44.88">essed</tspan></text><path d="M410.08,949c8.23,0,15.06-8.66,16.48-20.07h-33C395,940.33,401.86,949,410.08,949Z" transform="translate(-5.55 -29.36)"/><path d="M382.8,979.61V967.22a6.69,6.69,0,0,1,4-6.1V950a22.27,22.27,0,0,0-10.47,18.9C376.32,975,378.79,978.07,382.8,979.61Z" transform="translate(-5.55 -29.36)"/><path d="M404.1,960.57c-2.8-4.16-5.87-9-7.05-12a4.61,4.61,0,0,1-.46-1.52l0-.27s0-.06,0-.09c-.31,0-.62.06-.93.1l-.12,0-.72.11v13.65Z" transform="translate(-5.55 -29.36)"/><path d="M412.41,955.73a5.46,5.46,0,0,0,2.2-2.14,4.28,4.28,0,0,0,.58-2.07,13.35,13.35,0,0,1-4.7,1h-.82a13.35,13.35,0,0,1-4.7-1,4.28,4.28,0,0,0,.58,2.07,5.52,5.52,0,0,0,2.2,2.14l-.34,4.84h5.34Z" transform="translate(-5.55 -29.36)"/><path d="M437.36,967.22v12.39c4-1.53,6.49-4.6,6.49-10.73A22.27,22.27,0,0,0,433.37,950v11.14A6.69,6.69,0,0,1,437.36,967.22Z" transform="translate(-5.55 -29.36)"/><path d="M425.38,946.92l-.72-.12h-.11l-.94-.11s0,.07,0,.1a2.51,2.51,0,0,1,0,.27,4.43,4.43,0,0,1-.45,1.52c-1.18,3-4.25,7.84-7.05,12h9.32V946.92Z" transform="translate(-5.55 -29.36)"/><path d="M429.91,923.16a2.45,2.45,0,0,0-2.45-2.45h-.67a16.71,16.71,0,0,0-9.17-14.91l-1.38,7.85a1.27,1.27,0,0,1-1.26,1.06.82.82,0,0,1-.22,0,1.27,1.27,0,0,1-1-1.48l1.58-9a3.35,3.35,0,0,0-2.85-1.58h-4.74a3.35,3.35,0,0,0-2.85,1.58l1.58,9a1.27,1.27,0,0,1-1,1.48.82.82,0,0,1-.22,0,1.27,1.27,0,0,1-1.26-1.06l-1.39-7.85a16.72,16.72,0,0,0-9.16,14.91h-.67a2.45,2.45,0,0,0,0,4.9h34.76A2.45,2.45,0,0,0,429.91,923.16Z" transform="translate(-5.55 -29.36)"/><circle cx="384.7" cy="937.57" r="3.31"/><circle cx="423.81" cy="937.57" r="3.3"/><path d="M237.28,902.66c-10.6,0-19.22,9.05-19.22,20.16s8.62,24.65,19.22,24.65" transform="translate(-5.55 -29.36)"/><path d="M237.28,947.47c10.6,0,19.22-13.53,19.22-24.65s-8.62-20.16-19.22-20.16" transform="translate(-5.55 -29.36)"/><path class="cls-27" d="M224.09,945.6a28.61,28.61,0,0,0,4.34,2.95h0a23.22,23.22,0,0,0,3.84,1.69" transform="translate(-5.55 -29.36)"/><path class="cls-27" d="M250.62,945.6a28.61,28.61,0,0,1-4.34,2.95h0a23.22,23.22,0,0,1-3.84,1.69" transform="translate(-5.55 -29.36)"/><path d="M251.67,945.66h-.09c-.34,0-.6-.09-.94-.09h0a.05.05,0,0,0,0,0h0l0,.06h0s0,0-.05.06l-.06,0c-.17.16-.38.31-.58.48l-.14.08v0h0c-.2.12-.36.27-.56.4l-.17.14-.15.1-.25.16h0l0,0-.07,0,0,0a.2.2,0,0,0-.12.06l-.06,0-.33.26-.07,0a3,3,0,0,1-.54.33s0,0,0,.06h0a2.49,2.49,0,0,1-.28.15s0,0,0,0l-.39.23a.2.2,0,0,0-.14.07l-.18.06s-.06,0,0,.06l-.08,0c-.07,0-.09,0-.1.06h0a.22.22,0,0,0-.11,0,.5.5,0,0,0-.12.08l0,0-.45.19s0,0,0,.05h0a5.25,5.25,0,0,1-.63.31c-.07,0-.1,0-.1.06l-.07,0s-.07,0-.08,0h0a.35.35,0,0,0-.11,0l-.06,0s0,0,0,0l-.09,0-.08.05a.39.39,0,0,0-.22.08l0,0,0,0c-.11,0-.19,0-.21.08l-.11,0-.18,0-.13,0-.36.16h0a.36.36,0,0,0-.19,0v0a13.29,13.29,0,0,1-4.66,1h-.86a13.27,13.27,0,0,1-4.65-1v0a4.26,4.26,0,0,0-.54-.16,4.35,4.35,0,0,0-.74-.28,4,4,0,0,0-.79-.34,5.23,5.23,0,0,0-.58-.29,3.58,3.58,0,0,0-.48-.24,4,4,0,0,0-.58-.31,2.43,2.43,0,0,0-.46-.22,3.26,3.26,0,0,0-.4-.24l-.21-.13a1.16,1.16,0,0,0-.24-.14,3.54,3.54,0,0,0-.41-.26h0l-.16-.11,0,0v0h0s0,0,0,0h0s0,0,0,0,0-.06-.05-.06h0l0,0s0-.06-.06-.06h0l0,0,0,0v0l-.08,0s0,0,0-.05a.76.76,0,0,1-.19-.12s0,0-.08-.07l0,0,0,0a2,2,0,0,0-.5-.35h0s0,0,0,0l-.07,0a1.78,1.78,0,0,0-.31-.23h0l-.06,0s0,0,0,0l0,0h0a2,2,0,0,0-.4-.29.85.85,0,0,0-.19-.19s0,0,0,0h0c-.34,0-.59.09-.93.09h-.09a22,22,0,0,0-19,21.8c-.17,12.15,9.65,12.15,21.8,12.15h22.75c12.15,0,22.06,0,22.06-12.15A22.16,22.16,0,0,0,251.67,945.66Z" transform="translate(-5.55 -29.36)"/><path class="cls-28" d="M224.19,945.92a1.67,1.67,0,0,0,.31.28" transform="translate(-5.55 -29.36)"/><path d="M101,933.44h-.23a34.61,34.61,0,0,0-68.8,0h-.23a3.86,3.86,0,0,0-3.85,3.85v23.08a3.86,3.86,0,0,0,3.85,3.85h7.7a3.85,3.85,0,0,0,3.84-3.85V937.29a3.82,3.82,0,0,0-3.54-3.79,26.89,26.89,0,0,1,53.26,0,3.82,3.82,0,0,0-3.54,3.79v23.08a3.85,3.85,0,0,0,3.84,3.85h0v3.85a3.85,3.85,0,0,1-3.84,3.85H66.35a3.85,3.85,0,1,0,0,7.69H89.47A11.56,11.56,0,0,0,101,968.07v-3.85a3.85,3.85,0,0,0,3.82-3.85V937.29A3.86,3.86,0,0,0,101,933.44Z" transform="translate(-5.55 -29.36)"/><path d="M566.5,923.87h-5v-5a2.05,2.05,0,0,0-2.06-2.05H547.9a2.05,2.05,0,0,0-2,2.05v5h-5a2,2,0,0,0-2,2v11.51a2.05,2.05,0,0,0,2,2.06h5v5a2.05,2.05,0,0,0,2,2.06h11.51a2.06,2.06,0,0,0,2.06-2.06v-5h5a2.06,2.06,0,0,0,2.06-2.06V925.92A2.05,2.05,0,0,0,566.5,923.87Zm-2,11.51h-7.09v7.09H550v-7.09h-7.09V928H550v-7.09h7.4V928h7.09Z" transform="translate(-5.55 -29.36)"/><path d="M631.68,975.5h-9.06V936a2.06,2.06,0,0,0-2.06-2.06H581.07V904.71a2.05,2.05,0,0,0-2.06-2.05H528.3a2,2,0,0,0-2,2.05V975.5h-9.74a2.06,2.06,0,0,0,0,4.11h11.13l.33,0,.33,0h61.1a2.05,2.05,0,0,0,2.05-2.06V958.84h16.66v18.71a2.06,2.06,0,0,0,2.06,2.06h21.51a2.06,2.06,0,0,0,0-4.11ZM530.36,906.77H577V975.5h-46.6Zm79.81,48H589.4a2.06,2.06,0,0,0-2.06,2.06V975.5h-6.27V938.06h37.44V975.5h-6.28V956.78A2.06,2.06,0,0,0,610.17,954.72Z" transform="translate(-5.55 -29.36)"/><path d="M711.48,962.38h25.08a6.29,6.29,0,0,0,6.27-6.27V937.3a6.3,6.3,0,0,0-6.27-6.28H711.48a6.3,6.3,0,0,0-6.27,6.28v18.81A6.29,6.29,0,0,0,711.48,962.38Zm-3.14-25.08a3.15,3.15,0,0,1,3.14-3.14h25.08a3.14,3.14,0,0,1,3.13,3.14v18.81a3.14,3.14,0,0,1-3.13,3.13H711.48a3.14,3.14,0,0,1-3.14-3.13Z" transform="translate(-5.55 -29.36)"/><path d="M752.24,940.43h32.91a1.57,1.57,0,1,0,0-3.13H752.24a1.57,1.57,0,1,0,0,3.13Z" transform="translate(-5.55 -29.36)"/><path d="M752.24,948.27h32.91a1.57,1.57,0,0,0,0-3.14H752.24a1.57,1.57,0,0,0,0,3.14Z" transform="translate(-5.55 -29.36)"/><path d="M752.24,956.11h32.91a1.57,1.57,0,1,0,0-3.14H752.24a1.57,1.57,0,1,0,0,3.14Z" transform="translate(-5.55 -29.36)"/><path d="M789.86,905.94H702.07a6.29,6.29,0,0,0-6.27,6.27v58a6.3,6.3,0,0,0,6.27,6.28h87.79a6.3,6.3,0,0,0,6.27-6.28v-58A6.29,6.29,0,0,0,789.86,905.94Zm-90.92,6.27a3.14,3.14,0,0,1,3.13-3.13h87.79a3.14,3.14,0,0,1,3.13,3.13v6.27h-94Zm94,58a3.14,3.14,0,0,1-3.13,3.14H702.07a3.14,3.14,0,0,1-3.13-3.14V921.62h94Z" transform="translate(-5.55 -29.36)"/><text class="cls-29" transform="translate(705.92 924.15)"><tspan class="cls-30">R</tspan><tspan x="13.54" y="0">x</tspan></text></svg>