<svg id="Layer_1" data-name="Layer 1" xmlns="http://www.w3.org/2000/svg" viewBox="0 0 140 170"><defs><style>.cls-1{fill:#0052a1;stroke:#0052a1;}.cls-1,.cls-2,.cls-3{stroke-linecap:round;stroke-width:7px;}.cls-1,.cls-2,.cls-3,.cls-4{stroke-miterlimit:10;}.cls-2,.cls-3{fill:none;stroke:#f84a00;isolation:isolate;}.cls-2{opacity:0.45;}.cls-3{opacity:0.85;}.cls-4{stroke:#000;stroke-width:0.5px;}.cls-5{fill:#fff;}</style></defs><title>how-assets</title><path class="cls-1" d="M5,101.51c.13,34.78,29.18,62.92,65,62.92s65-28.27,65-63.11v-.46Z"/><path class="cls-2" d="M122.1,88.09c-.06-36.47-23.39-66-52.1-66S17.9,51.74,17.9,88.32v.47Z"/><path class="cls-3" d="M135,94.29c-.13-49-29.18-88.72-65-88.72S5,45.41,5,94.55v.65Z"/><path d="M39.22,68.61c3.2,0,5.92-3.38,6.46-7.85H32.76C33.31,65.23,36,68.61,39.22,68.61Z"/><path d="M28.54,80.62V75.79a2.62,2.62,0,0,1,1.57-2.41V69A8.75,8.75,0,0,0,26,76.45C25.94,78.81,26.91,80,28.54,80.62Z"/><path d="M36.87,73.13a35.76,35.76,0,0,1-2.78-4.7,1,1,0,0,1-.18-.61v-.18a.76.76,0,0,0-.36.06h-.06a.54.54,0,0,0-.3.06v5.37Z"/><path d="M40.13,71.26a1.9,1.9,0,0,0,.84-.84,2,2,0,0,0,.24-.79,4.93,4.93,0,0,1-1.87.43H39a5.42,5.42,0,0,1-1.87-.43,1.22,1.22,0,0,0,.24.79,1.87,1.87,0,0,0,.85.84l-.12,1.87h2.11Z"/><path d="M49.91,75.79v4.83c1.57-.6,2.53-1.81,2.53-4.23A8.76,8.76,0,0,0,48.34,69v4.35A2.72,2.72,0,0,1,49.91,75.79Z"/><path d="M45.2,67.82c-.12,0-.18-.06-.3-.06h-.06a.78.78,0,0,1-.37-.06v.18a1.19,1.19,0,0,1-.18.61,36,36,0,0,1-2.77,4.7H45.2V67.82Z"/><path d="M47,58.47a1,1,0,0,0-1-1H45.8a6.54,6.54,0,0,0-3.62-5.85l-.54,3.07a.52.52,0,0,1-.49.43h-.06a.5.5,0,0,1-.42-.61l.6-3.5a1.34,1.34,0,0,0-1.08-.6H38.32a1.19,1.19,0,0,0-1.09.6l.6,3.5a.5.5,0,0,1-.42.61h-.06a.51.51,0,0,1-.48-.43l-.55-3.07A6.65,6.65,0,0,0,32.7,57.5h-.24a1,1,0,0,0,0,1.93H46.1A1,1,0,0,0,47,58.47Z"/><circle cx="31.44" cy="75.67" r="1.27"/><circle cx="46.77" cy="75.67" r="1.27"/><path d="M101.57,67.34h0c-.18,0-.3-.06-.42-.06v.18a1.16,1.16,0,0,1-.18.6,45.77,45.77,0,0,1-3.92,6.34l-.24-3.56a1.9,1.9,0,0,0,.84-.84,2,2,0,0,0,.24-.79,4.93,4.93,0,0,1-1.81.42h-.36a4.93,4.93,0,0,1-1.81-.42,1.25,1.25,0,0,0,.24.79,1.87,1.87,0,0,0,.85.84l-.25,3.56a46.75,46.75,0,0,1-3.92-6.34,1,1,0,0,1-.18-.6v-.18a.76.76,0,0,0-.36.06h-.06a8.6,8.6,0,0,0-7.43,8.57c0,4.77,3.87,4.77,8.63,4.77h8.94c4.77,0,8.63,0,8.63-4.77A8.51,8.51,0,0,0,101.57,67.34Z"/><path d="M96,50.44a7.75,7.75,0,0,0-7.54,7.91C88.42,62.69,91.8,68,96,68"/><path d="M96,68c4.17,0,7.55-5.31,7.55-9.65A7.75,7.75,0,0,0,96,50.44"/><path class="cls-4" d="M70.07,41.38H52.8a1.76,1.76,0,0,0-1.75,1.75V53a1.75,1.75,0,0,0,1.75,1.75h1.57v3.51a.33.33,0,0,0,.24.36.23.23,0,0,0,.19.06,1.36,1.36,0,0,0,.24-.06l4.64-3.81H70A1.75,1.75,0,0,0,71.76,53v-9.9A1.67,1.67,0,0,0,70.07,41.38ZM71,52.91a.82.82,0,0,1-.84.85H59.62a1.36,1.36,0,0,0-.24.06l-4,3.32v-3a.41.41,0,0,0-.42-.42H52.86a.82.82,0,0,1-.84-.85V43.13a.82.82,0,0,1,.84-.84H70.13a.82.82,0,0,1,.84.84Z"/><path d="M64.88,46.58H62.82V44.52a.41.41,0,0,0-.42-.42H60.47a.41.41,0,0,0-.42.42v2.06H58a.41.41,0,0,0-.42.42v1.93a.41.41,0,0,0,.42.42h2.06v2a.41.41,0,0,0,.42.43H62.4a.41.41,0,0,0,.42-.43v-2h2.06a.41.41,0,0,0,.42-.42V47A.51.51,0,0,0,64.88,46.58Zm-.43,2H62.4A.41.41,0,0,0,62,49v2H60.89V49a.41.41,0,0,0-.42-.42h-2V47.48h2a.41.41,0,0,0,.42-.42V45H62v2.05a.41.41,0,0,0,.42.42h2.05Z"/><path class="cls-5" d="M24.62,114.92v-6.73h4.54v1.28h-3v1.31h2.69V112H26.13v1.62h3.25v1.27Z"/><path class="cls-5" d="M33.2,112.21a2.17,2.17,0,0,0-.17-1,.68.68,0,0,0-.62-.29l-.28,0a2.4,2.4,0,0,0-.28,0v3.94H30.4V110l.43-.1.53-.1.56-.07.58,0a2.24,2.24,0,0,1,.89.14,1.94,1.94,0,0,1,.57.33,3,3,0,0,1,.72-.35,2.54,2.54,0,0,1,.74-.12,2.4,2.4,0,0,1,1,.17,1.52,1.52,0,0,1,.63.48,1.91,1.91,0,0,1,.32.74,4.61,4.61,0,0,1,.08,1v2.88H36v-2.71a2,2,0,0,0-.18-1,.68.68,0,0,0-.62-.29,1.3,1.3,0,0,0-.32.06,1.69,1.69,0,0,0-.35.14,1.86,1.86,0,0,1,.09.48c0,.16,0,.34,0,.52v2.79H33.2Z"/><path class="cls-5" d="M43.51,112.37a3.59,3.59,0,0,1-.15,1.07,2.37,2.37,0,0,1-.42.84,2,2,0,0,1-.7.54,2.26,2.26,0,0,1-1,.2,2.47,2.47,0,0,1-.56-.06,2.78,2.78,0,0,1-.51-.17v1.92H38.76V110a3.71,3.71,0,0,1,.45-.11,4.51,4.51,0,0,1,.53-.09l.56-.07.55,0a3.08,3.08,0,0,1,1.13.19,2.22,2.22,0,0,1,1.35,1.37A3.23,3.23,0,0,1,43.51,112.37Zm-1.47,0a1.77,1.77,0,0,0-.31-1.08,1.05,1.05,0,0,0-.89-.4l-.36,0a1.7,1.7,0,0,0-.27,0v2.61a1.27,1.27,0,0,0,.35.15,2.3,2.3,0,0,0,.45.05C41.69,113.79,42,113.33,42,112.41Z"/><path class="cls-5" d="M46.66,115a3.85,3.85,0,0,1-1-.14,1.48,1.48,0,0,1-.62-.35,1.19,1.19,0,0,1-.31-.56,2.72,2.72,0,0,1-.08-.73v-5.62l1.44-.23V113a1.83,1.83,0,0,0,0,.35.68.68,0,0,0,.11.26.76.76,0,0,0,.24.18,1.36,1.36,0,0,0,.42.08Z"/><path class="cls-5" d="M52.47,112.36a3.25,3.25,0,0,1-.18,1.1,2.39,2.39,0,0,1-.5.85,2.3,2.3,0,0,1-.79.55,2.68,2.68,0,0,1-1,.19,2.61,2.61,0,0,1-1-.19,2.21,2.21,0,0,1-.79-.55,2.59,2.59,0,0,1-.52-.85,3.25,3.25,0,0,1-.18-1.1,3,3,0,0,1,.19-1.1,2.39,2.39,0,0,1,.52-.84,2.34,2.34,0,0,1,.8-.55,2.51,2.51,0,0,1,1-.19,2.61,2.61,0,0,1,1,.19,2.3,2.3,0,0,1,.79.55,2.37,2.37,0,0,1,.51.84A3.21,3.21,0,0,1,52.47,112.36Zm-1.48,0a1.83,1.83,0,0,0-.27-1.06.87.87,0,0,0-.76-.38.88.88,0,0,0-.76.38,1.75,1.75,0,0,0-.28,1.06,1.78,1.78,0,0,0,.28,1.06.87.87,0,0,0,.76.39.86.86,0,0,0,.76-.39A1.85,1.85,0,0,0,51,112.36Z"/><path class="cls-5" d="M58,109.81c-.3,1-.6,1.91-.92,2.77s-.66,1.7-1,2.5a5.16,5.16,0,0,1-.41.75,2.16,2.16,0,0,1-.44.5,1.71,1.71,0,0,1-.55.29,2.63,2.63,0,0,1-.72.09,3,3,0,0,1-.62-.06,3.14,3.14,0,0,1-.48-.14l.26-1.15a2.59,2.59,0,0,0,.4.1,2,2,0,0,0,.36,0,.81.81,0,0,0,.6-.21,1.7,1.7,0,0,0,.36-.58c-.33-.64-.66-1.37-1-2.17a26.73,26.73,0,0,1-.94-2.72H54.4c.06.26.14.53.23.82s.18.6.27.9l.3.88c.1.28.2.54.29.77.08-.23.17-.49.26-.77l.27-.88c.09-.3.17-.6.25-.9s.16-.56.22-.82Z"/><path class="cls-5" d="M58.37,112.41a3.09,3.09,0,0,1,.21-1.19,2.6,2.6,0,0,1,.55-.85,2.37,2.37,0,0,1,.78-.52,2.62,2.62,0,0,1,.91-.17,2.28,2.28,0,0,1,1.72.66,2.77,2.77,0,0,1,.63,2c0,.08,0,.18,0,.27s0,.19,0,.27H59.86a.94.94,0,0,0,.42.71,1.62,1.62,0,0,0,1,.26,4.11,4.11,0,0,0,.78-.07,3.12,3.12,0,0,0,.62-.18l.2,1.17a2,2,0,0,1-.31.12l-.43.1-.51.08-.55,0a3.14,3.14,0,0,1-1.2-.2,2.29,2.29,0,0,1-.84-.56,2.07,2.07,0,0,1-.49-.84A3.19,3.19,0,0,1,58.37,112.41Zm3.4-.56a2.25,2.25,0,0,0-.06-.36.94.94,0,0,0-.17-.31.88.88,0,0,0-.28-.22.87.87,0,0,0-.42-.09,1.08,1.08,0,0,0-.42.08,1.06,1.06,0,0,0-.29.22.92.92,0,0,0-.18.32,2.37,2.37,0,0,0-.09.36Z"/><path class="cls-5" d="M64,112.41a3.09,3.09,0,0,1,.21-1.19,2.45,2.45,0,0,1,.55-.85,2.27,2.27,0,0,1,.78-.52,2.58,2.58,0,0,1,.91-.17,2.25,2.25,0,0,1,1.71.66,2.77,2.77,0,0,1,.63,2v.27c0,.11,0,.19,0,.27H65.53a1,1,0,0,0,.41.71,1.66,1.66,0,0,0,1,.26,4,4,0,0,0,.78-.07,3,3,0,0,0,.63-.18l.19,1.17a1.68,1.68,0,0,1-.31.12l-.43.1-.51.08-.54,0a3.14,3.14,0,0,1-1.2-.2,2.29,2.29,0,0,1-.84-.56,2.09,2.09,0,0,1-.5-.84A3.49,3.49,0,0,1,64,112.41Zm3.4-.56a1.53,1.53,0,0,0-.07-.36.92.92,0,0,0-.16-.31.88.88,0,0,0-.28-.22.9.9,0,0,0-.42-.09,1,1,0,0,0-.42.08.93.93,0,0,0-.29.22.92.92,0,0,0-.18.32,2.37,2.37,0,0,0-.09.36Z"/><path class="cls-5" d="M74.45,114.75l-.44.12-.53.09-.56.06a5.34,5.34,0,0,1-.55,0,3.31,3.31,0,0,1-1.13-.18,2.16,2.16,0,0,1-.83-.53,2.29,2.29,0,0,1-.52-.83,3.21,3.21,0,0,1-.18-1.1,3.84,3.84,0,0,1,.15-1.12,2.54,2.54,0,0,1,.45-.85,1.89,1.89,0,0,1,.71-.54,2.47,2.47,0,0,1,1-.18,2.23,2.23,0,0,1,.54.06,2.26,2.26,0,0,1,.48.16v-2.31l1.44-.23Zm-3.27-2.42a1.81,1.81,0,0,0,.3,1.08,1,1,0,0,0,.9.4h.36l.27,0v-2.63a1.59,1.59,0,0,0-.36-.14,1.61,1.61,0,0,0-.44-.06C71.53,110.93,71.18,111.4,71.18,112.33Z"/><path class="cls-5" d="M78.14,110a8.2,8.2,0,0,1,2.17-.29,2.87,2.87,0,0,1,1.09.17,1.62,1.62,0,0,1,.68.48,1.83,1.83,0,0,1,.36.74,3.93,3.93,0,0,1,.11,1v2.88H81.1v-2.71a1.9,1.9,0,0,0-.19-1,.75.75,0,0,0-.68-.29l-.33,0a2.51,2.51,0,0,0-.31,0v3.94H78.14Z"/><path class="cls-5" d="M88.63,112.36a3.25,3.25,0,0,1-.18,1.1,2.25,2.25,0,0,1-.5.85,2.21,2.21,0,0,1-.79.55,2.89,2.89,0,0,1-2.06,0,2.21,2.21,0,0,1-.79-.55,2.41,2.41,0,0,1-.51-.85,3,3,0,0,1-.19-1.1,3.21,3.21,0,0,1,.19-1.1,2.41,2.41,0,0,1,.53-.84,2.21,2.21,0,0,1,.79-.55,2.56,2.56,0,0,1,1-.19,2.59,2.59,0,0,1,1,.19,2.21,2.21,0,0,1,.79.55,2.54,2.54,0,0,1,.52.84A3.21,3.21,0,0,1,88.63,112.36Zm-1.47,0a1.83,1.83,0,0,0-.27-1.06.88.88,0,0,0-.76-.38.9.9,0,0,0-.77.38,1.83,1.83,0,0,0-.27,1.06,1.85,1.85,0,0,0,.27,1.06.88.88,0,0,0,.77.39.87.87,0,0,0,.76-.39A1.85,1.85,0,0,0,87.16,112.36Z"/><path class="cls-5" d="M89.7,108.54l1.44-.23v1.5h1.74V111H91.14v1.79a1.49,1.49,0,0,0,.16.73.69.69,0,0,0,.65.27,2.74,2.74,0,0,0,.48,0,3,3,0,0,0,.45-.12l.2,1.12a4,4,0,0,1-.58.19,3.46,3.46,0,0,1-.78.07,2.48,2.48,0,0,1-1-.16,1.53,1.53,0,0,1-.63-.44,1.69,1.69,0,0,1-.32-.69,4.32,4.32,0,0,1-.09-.91Z"/><path class="cls-5" d="M95.64,108.34a.81.81,0,0,1-.26.63.9.9,0,0,1-.61.22.87.87,0,0,1-.6-.22.89.89,0,0,1,0-1.26.87.87,0,0,1,.6-.22.9.9,0,0,1,.61.22A.81.81,0,0,1,95.64,108.34Zm-.14,6.58H94.05v-5.11H95.5Z"/><path class="cls-5" d="M99.07,107.39a2.5,2.5,0,0,1,.67.07,3.18,3.18,0,0,1,.46.14l-.26,1.14a1.13,1.13,0,0,0-.34-.1l-.38,0a1.42,1.42,0,0,0-.45.07.75.75,0,0,0-.28.2.83.83,0,0,0-.14.3,1.58,1.58,0,0,0,0,.38v.25h1.79V111H98.3v3.9H96.86v-5.38a2.14,2.14,0,0,1,.56-1.57A2.17,2.17,0,0,1,99.07,107.39Zm3.43,1a.81.81,0,0,1-.25.63.9.9,0,0,1-.61.22.87.87,0,0,1-.6-.22.89.89,0,0,1,0-1.26.87.87,0,0,1,.6-.22.9.9,0,0,1,.61.22A.81.81,0,0,1,102.5,108.34Zm-.13,6.58h-1.45v-5.11h1.45Z"/><path class="cls-5" d="M103.49,112.41a3.09,3.09,0,0,1,.2-1.19,2.6,2.6,0,0,1,.55-.85,2.37,2.37,0,0,1,.78-.52,2.62,2.62,0,0,1,.91-.17,2.26,2.26,0,0,1,1.72.66,2.77,2.77,0,0,1,.63,2,2.53,2.53,0,0,1,0,.27c0,.11,0,.19,0,.27H105a.94.94,0,0,0,.42.71,1.62,1.62,0,0,0,1,.26,4.11,4.11,0,0,0,.78-.07,3.12,3.12,0,0,0,.62-.18l.2,1.17a2,2,0,0,1-.31.12l-.43.1-.51.08-.55,0a3.14,3.14,0,0,1-1.2-.2,2.29,2.29,0,0,1-.84-.56,2.07,2.07,0,0,1-.49-.84A3.19,3.19,0,0,1,103.49,112.41Zm3.39-.56a2.25,2.25,0,0,0-.06-.36.94.94,0,0,0-.17-.31.78.78,0,0,0-.28-.22.87.87,0,0,0-.42-.09,1.08,1.08,0,0,0-.42.08,1.06,1.06,0,0,0-.29.22.92.92,0,0,0-.18.32,2.37,2.37,0,0,0-.09.36Z"/><path class="cls-5" d="M110.86,113.88a1.47,1.47,0,0,0,.56-.08.3.3,0,0,0,.17-.3.35.35,0,0,0-.22-.3,3.74,3.74,0,0,0-.65-.3,5.89,5.89,0,0,1-.61-.26,1.65,1.65,0,0,1-.47-.33,1.19,1.19,0,0,1-.3-.45,1.48,1.48,0,0,1-.11-.63,1.35,1.35,0,0,1,.53-1.13,2.34,2.34,0,0,1,1.47-.42,5.08,5.08,0,0,1,.89.08,5.29,5.29,0,0,1,.68.18l-.25,1.13c-.17-.06-.35-.11-.55-.16a3.36,3.36,0,0,0-.67-.07c-.45,0-.67.13-.67.38a.41.41,0,0,0,0,.16.36.36,0,0,0,.12.13,1.29,1.29,0,0,0,.24.13l.38.17a5.63,5.63,0,0,1,.79.34,2.24,2.24,0,0,1,.49.37,1.22,1.22,0,0,1,.25.44,1.91,1.91,0,0,1,.07.56,1.3,1.3,0,0,1-.57,1.15,2.78,2.78,0,0,1-1.6.38,4.54,4.54,0,0,1-1.13-.11,4,4,0,0,1-.63-.2l.25-1.17a4.66,4.66,0,0,0,.75.23A4.11,4.11,0,0,0,110.86,113.88Z"/><path class="cls-5" d="M21.28,123.86a2,2,0,0,0-.18-1,.67.67,0,0,0-.62-.3l-.28,0-.28,0v3.94H18.47v-4.93l.43-.1.53-.1c.18,0,.37-.05.56-.06l.58,0a2.44,2.44,0,0,1,.89.14,2.2,2.2,0,0,1,.57.34,2.41,2.41,0,0,1,.72-.35,2.27,2.27,0,0,1,.74-.13,2.57,2.57,0,0,1,1,.17,1.52,1.52,0,0,1,.63.48,2,2,0,0,1,.32.74,4.58,4.58,0,0,1,.09,1v2.88H24.08v-2.7a2,2,0,0,0-.18-1,.66.66,0,0,0-.62-.3,1.3,1.3,0,0,0-.32.06,1.27,1.27,0,0,0-.35.15,1.78,1.78,0,0,1,.09.47c0,.16,0,.34,0,.53v2.78H21.28Z"/><path class="cls-5" d="M28.67,121.32a3.28,3.28,0,0,1,1.07.15,1.61,1.61,0,0,1,.68.42,1.52,1.52,0,0,1,.36.66,2.85,2.85,0,0,1,.11.86v3l-.86.16a8.56,8.56,0,0,1-1.34.09,4.16,4.16,0,0,1-.9-.09,2,2,0,0,1-.69-.28,1.32,1.32,0,0,1-.45-.52,1.89,1.89,0,0,1-.15-.79,1.5,1.5,0,0,1,.18-.76,1.25,1.25,0,0,1,.48-.49,2.42,2.42,0,0,1,.68-.27,4.28,4.28,0,0,1,.81-.08l.5,0a1.94,1.94,0,0,1,.35.07v-.14a.8.8,0,0,0-.22-.59,1.09,1.09,0,0,0-.78-.22,4.36,4.36,0,0,0-.72,0,3,3,0,0,0-.62.15L27,121.57l.32-.09.41-.07a3.35,3.35,0,0,1,.47-.06A4.07,4.07,0,0,1,28.67,121.32Zm.12,4.23h.4a1.24,1.24,0,0,0,.31,0v-1.09l-.26,0-.32,0-.38,0a1,1,0,0,0-.32.1.46.46,0,0,0-.21.18.55.55,0,0,0-.08.29.5.5,0,0,0,.23.47A1.23,1.23,0,0,0,28.79,125.55Z"/><path class="cls-5" d="M32.2,121.63c.25-.07.56-.13.95-.2a8,8,0,0,1,1.22-.09,3.08,3.08,0,0,1,1.09.17,1.62,1.62,0,0,1,.68.48,1.89,1.89,0,0,1,.36.74,3.93,3.93,0,0,1,.11,1v2.88H35.16v-2.7a2,2,0,0,0-.18-1,.76.76,0,0,0-.69-.3l-.33,0-.31,0v3.94H32.2Z"/><path class="cls-5" d="M39.75,121.32a3.28,3.28,0,0,1,1.07.15,1.61,1.61,0,0,1,.68.42,1.64,1.64,0,0,1,.37.66,3.22,3.22,0,0,1,.1.86v3l-.86.16a8.56,8.56,0,0,1-1.34.09,4.16,4.16,0,0,1-.9-.09,2,2,0,0,1-.69-.28,1.32,1.32,0,0,1-.45-.52,1.89,1.89,0,0,1-.15-.79,1.5,1.5,0,0,1,.18-.76,1.41,1.41,0,0,1,.48-.49,2.37,2.37,0,0,1,.69-.27,4.09,4.09,0,0,1,.8-.08l.5,0a1.94,1.94,0,0,1,.35.07v-.14a.8.8,0,0,0-.22-.59,1.09,1.09,0,0,0-.78-.22,4.36,4.36,0,0,0-.72,0,3,3,0,0,0-.62.15l-.19-1.16.32-.09.41-.07a3.55,3.55,0,0,1,.47-.06A4.07,4.07,0,0,1,39.75,121.32Zm.12,4.23h.4a1.24,1.24,0,0,0,.31,0v-1.09l-.26,0-.32,0-.38,0a1,1,0,0,0-.32.1.46.46,0,0,0-.21.18A.55.55,0,0,0,39,125a.5.5,0,0,0,.23.47A1.23,1.23,0,0,0,39.87,125.55Z"/><path class="cls-5" d="M47.69,125.92a2.43,2.43,0,0,1-.64,1.86,2.77,2.77,0,0,1-2,.61,4.88,4.88,0,0,1-.93-.09,5.54,5.54,0,0,1-.87-.21l.25-1.22a5.48,5.48,0,0,0,.72.22,4.36,4.36,0,0,0,.85.07,1.16,1.16,0,0,0,.87-.27.94.94,0,0,0,.26-.7V126a2.46,2.46,0,0,1-.48.16,2.92,2.92,0,0,1-.54,0,2.1,2.1,0,0,1-1.62-.62,2.55,2.55,0,0,1-.56-1.75,3,3,0,0,1,.17-1,2.24,2.24,0,0,1,.51-.79,2.37,2.37,0,0,1,.82-.51,3.17,3.17,0,0,1,1.1-.18l.54,0a5.14,5.14,0,0,1,.55.06l.52.09.44.11Zm-3.18-2.07c0,.8.33,1.21,1,1.21a1.42,1.42,0,0,0,.42-.06,1.26,1.26,0,0,0,.33-.14v-2.3l-.25,0h-.34a1,1,0,0,0-.85.37A1.6,1.6,0,0,0,44.51,123.85Z"/><path class="cls-5" d="M48.8,124.05a3.12,3.12,0,0,1,.21-1.19,2.55,2.55,0,0,1,.55-.85,2.2,2.2,0,0,1,.78-.51,2.42,2.42,0,0,1,.91-.18A2.26,2.26,0,0,1,53,122a2.72,2.72,0,0,1,.63,2c0,.09,0,.18,0,.28s0,.19,0,.27H50.29a1,1,0,0,0,.41.7,1.66,1.66,0,0,0,1,.27,4.15,4.15,0,0,0,.79-.08,2.57,2.57,0,0,0,.62-.18l.2,1.18a1.48,1.48,0,0,1-.32.11,3.34,3.34,0,0,1-.43.11l-.51.07a4.89,4.89,0,0,1-.54,0,3.14,3.14,0,0,1-1.2-.21,2.27,2.27,0,0,1-.84-.55,2.24,2.24,0,0,1-.5-.84A3.6,3.6,0,0,1,48.8,124.05Zm3.4-.55a1.93,1.93,0,0,0-.06-.36.85.85,0,0,0-.17-.31.91.91,0,0,0-.28-.23,1,1,0,0,0-.42-.08.93.93,0,0,0-.42.08.8.8,0,0,0-.29.22.87.87,0,0,0-.18.31,2.22,2.22,0,0,0-.09.37Z"/><path class="cls-5" d="M57.52,123.86a2,2,0,0,0-.18-1,.67.67,0,0,0-.62-.3l-.28,0-.28,0v3.94H54.71v-4.93l.43-.1.53-.1c.18,0,.37-.05.57-.06a5.44,5.44,0,0,1,.57,0,2.5,2.5,0,0,1,.9.14,2.14,2.14,0,0,1,.56.34,2.41,2.41,0,0,1,.72-.35,2.27,2.27,0,0,1,.74-.13,2.57,2.57,0,0,1,1,.17,1.52,1.52,0,0,1,.63.48,2,2,0,0,1,.32.74,4.58,4.58,0,0,1,.09,1v2.88H60.32v-2.7a2,2,0,0,0-.18-1,.65.65,0,0,0-.61-.3,1.29,1.29,0,0,0-.33.06,1.2,1.2,0,0,0-.34.15,2.31,2.31,0,0,1,.08.47,4.44,4.44,0,0,1,0,.53v2.78H57.52Z"/><path class="cls-5" d="M62.83,124.05a3.12,3.12,0,0,1,.21-1.19,2.55,2.55,0,0,1,.55-.85,2.2,2.2,0,0,1,.78-.51,2.42,2.42,0,0,1,.91-.18A2.24,2.24,0,0,1,67,122a2.72,2.72,0,0,1,.63,2c0,.09,0,.18,0,.28s0,.19,0,.27H64.32a.93.93,0,0,0,.42.7,1.61,1.61,0,0,0,1,.27,4.15,4.15,0,0,0,.79-.08,2.57,2.57,0,0,0,.62-.18l.2,1.18a1.37,1.37,0,0,1-.31.11l-.44.11-.51.07a4.89,4.89,0,0,1-.54,0,3.14,3.14,0,0,1-1.2-.21,2.27,2.27,0,0,1-.84-.55,2.38,2.38,0,0,1-.5-.84A3.6,3.6,0,0,1,62.83,124.05Zm3.4-.55a1.93,1.93,0,0,0-.06-.36.85.85,0,0,0-.17-.31.91.91,0,0,0-.28-.23,1,1,0,0,0-.42-.08.93.93,0,0,0-.42.08.8.8,0,0,0-.29.22.87.87,0,0,0-.18.31,2.22,2.22,0,0,0-.09.37Z"/><path class="cls-5" d="M68.74,121.63c.25-.07.57-.13,1-.2a8.09,8.09,0,0,1,1.23-.09,3.06,3.06,0,0,1,1.08.17,1.56,1.56,0,0,1,.68.48,1.89,1.89,0,0,1,.36.74,3.93,3.93,0,0,1,.11,1v2.88H71.7v-2.7a2,2,0,0,0-.18-1,.74.74,0,0,0-.69-.3l-.33,0-.31,0v3.94H68.74Z"/><path class="cls-5" d="M74.41,120.19l1.45-.24v1.51h1.73v1.2H75.86v1.8a1.37,1.37,0,0,0,.16.72.66.66,0,0,0,.64.28,2.61,2.61,0,0,0,.48,0,2.44,2.44,0,0,0,.45-.12l.21,1.13a4.12,4.12,0,0,1-.59.18,3.4,3.4,0,0,1-.78.08,2.51,2.51,0,0,1-1-.16,1.53,1.53,0,0,1-.62-.45,1.59,1.59,0,0,1-.33-.69,4.16,4.16,0,0,1-.09-.9Z"/><path class="cls-5" d="M85.87,124a3.21,3.21,0,0,1-.18,1.1,2.21,2.21,0,0,1-1.29,1.4,2.75,2.75,0,0,1-2.06,0,2.31,2.31,0,0,1-.79-.54,2.46,2.46,0,0,1-.51-.86,3.28,3.28,0,0,1,0-2.2,2.41,2.41,0,0,1,.53-.84,2.31,2.31,0,0,1,.79-.54,2.56,2.56,0,0,1,1-.2,2.6,2.6,0,0,1,1,.2,2.31,2.31,0,0,1,.79.54,2.37,2.37,0,0,1,.51.84A3,3,0,0,1,85.87,124Zm-1.48,0a1.85,1.85,0,0,0-.26-1,.86.86,0,0,0-.76-.38.88.88,0,0,0-.77.38,1.77,1.77,0,0,0-.27,1,1.83,1.83,0,0,0,.27,1.06.89.89,0,0,0,.77.4.88.88,0,0,0,.76-.4A1.91,1.91,0,0,0,84.39,124Z"/><path class="cls-5" d="M89.2,119a2.83,2.83,0,0,1,.74.09,2.43,2.43,0,0,1,.53.16l-.28,1.15a1.8,1.8,0,0,0-.43-.13,2.12,2.12,0,0,0-.42,0,1.16,1.16,0,0,0-.44.07.65.65,0,0,0-.28.2.71.71,0,0,0-.15.3,2.11,2.11,0,0,0,0,.38v.25h1.79v1.2H88.43v3.9H87v-5.37a2.17,2.17,0,0,1,.56-1.57A2.2,2.2,0,0,1,89.2,119Z"/><path class="cls-5" d="M95,120a.8.8,0,0,1-.26.63.91.91,0,0,1-1.21,0,.88.88,0,0,1,0-1.25.91.91,0,0,1,1.21,0A.79.79,0,0,1,95,120Zm-.14,6.58H93.41v-5.1h1.44Z"/><path class="cls-5" d="M96.21,121.63c.25-.07.57-.13,1-.2a8.09,8.09,0,0,1,1.23-.09,3.06,3.06,0,0,1,1.08.17,1.56,1.56,0,0,1,.68.48,1.89,1.89,0,0,1,.36.74,3.93,3.93,0,0,1,.11,1v2.88H99.17v-2.7a2,2,0,0,0-.18-1,.76.76,0,0,0-.69-.3l-.33,0-.31,0v3.94H96.21Z"/><path class="cls-5" d="M101.45,128.36l-.4,0a2.45,2.45,0,0,1-.5-.11l.19-1.17.27.07h.31a.51.51,0,0,0,.47-.2,1,1,0,0,0,.14-.59v-4.88h1.44v4.92a2,2,0,0,1-.49,1.49A1.94,1.94,0,0,1,101.45,128.36Zm2.06-8.38a.8.8,0,0,1-.26.63.91.91,0,0,1-1.21,0,.88.88,0,0,1,0-1.25.91.91,0,0,1,1.21,0A.79.79,0,0,1,103.51,120Z"/><path class="cls-5" d="M109.09,126.39a8.2,8.2,0,0,1-2.18.29,2.83,2.83,0,0,1-1.08-.18,1.57,1.57,0,0,1-.68-.49,1.87,1.87,0,0,1-.36-.75,4.08,4.08,0,0,1-.11-1v-2.84h1.45v2.67a2.14,2.14,0,0,0,.18,1,.76.76,0,0,0,.69.31l.33,0,.31,0v-3.94h1.45Z"/><path class="cls-5" d="M113.52,122.74l-.45-.1a2.62,2.62,0,0,0-.57-.06l-.32,0a1.41,1.41,0,0,0-.29,0v3.9h-1.44v-4.83a8,8,0,0,1,.91-.26,5.42,5.42,0,0,1,1.18-.12l.28,0,.33,0,.33,0a1.66,1.66,0,0,1,.29.09Z"/><path class="cls-5" d="M119.38,121.46c-.29,1-.59,1.9-.91,2.76s-.67,1.7-1,2.51a5.45,5.45,0,0,1-.41.74,2.45,2.45,0,0,1-.45.5,1.55,1.55,0,0,1-.55.3,2.86,2.86,0,0,1-1.34,0,2,2,0,0,1-.47-.14l.25-1.15a2.73,2.73,0,0,0,.4.11,2.23,2.23,0,0,0,.37,0,.81.81,0,0,0,.6-.2,1.79,1.79,0,0,0,.35-.58c-.33-.65-.66-1.37-1-2.18a26.59,26.59,0,0,1-.93-2.71h1.53c.07.25.14.52.23.82s.18.59.28.89l.3.88c.1.28.19.54.28.78q.14-.36.27-.78l.27-.88c.08-.3.17-.6.25-.89s.15-.57.22-.82Z"/></svg>