<svg id="Layer_1" data-name="Layer 1" xmlns="http://www.w3.org/2000/svg" viewBox="0 0 140 170"><defs><style>.cls-1{fill:#0052a1;stroke:#0052a1;}.cls-1,.cls-2,.cls-3{stroke-linecap:round;stroke-miterlimit:10;stroke-width:7px;}.cls-2,.cls-3{fill:none;stroke:#f84a00;isolation:isolate;}.cls-2{opacity:0.45;}.cls-3{opacity:0.85;}.cls-4{fill:#fff;}</style></defs><title>how-assets</title><path class="cls-1" d="M5,101.51c.13,34.78,29.18,62.92,65,62.92s65-28.27,65-63.11v-.46Z"/><path class="cls-2" d="M122.1,88.09c-.06-36.47-23.39-66-52.1-66S17.9,51.74,17.9,88.32v.47Z"/><path class="cls-3" d="M135,94.29c-.13-49-29.18-88.72-65-88.72S5,45.41,5,94.55v.65Z"/><path d="M70,40.88a7.39,7.39,0,0,0-7.19,7.58c0,4.14,3.24,9.26,7.19,9.26"/><path d="M70,57.72c4,0,7.19-5,7.19-9.26A7.43,7.43,0,0,0,70,40.88"/><path d="M84.2,64.58a9.48,9.48,0,0,0-8-7.7h-.06a.77.77,0,0,1-.39-.07V57a1.23,1.23,0,0,1-.2.65,44.41,44.41,0,0,1-4.2,6.87h-.07L71,60.7a2.23,2.23,0,0,0,1.17-1.82,5.33,5.33,0,0,1-2,.46h-.39a5.32,5.32,0,0,1-2-.46,1.63,1.63,0,0,0,.25.91,2.1,2.1,0,0,0,.91.91l-.26,3.82H68.6a44.51,44.51,0,0,1-4.21-6.87,1.23,1.23,0,0,1-.2-.65v-.19a.72.72,0,0,0-.38.07h-.07a9.48,9.48,0,0,0-8,7.7A2.51,2.51,0,0,0,53.9,67v.13l2.27,13a2.49,2.49,0,0,0,2.46,2.4H81.16a2.45,2.45,0,0,0,2.46-2.4l2.26-13V67A2.3,2.3,0,0,0,84.2,64.58ZM83.1,80.06a1.81,1.81,0,0,1-1.81,1.81H58.75a1.81,1.81,0,0,1-1.81-1.81L54.68,67a1.81,1.81,0,0,1,1.81-1.82h27A1.81,1.81,0,0,1,85.3,67Z"/><path d="M70,71.51a.91.91,0,1,0,.91.91A.89.89,0,0,0,70,71.51Z"/><path class="cls-4" d="M22.55,108c.12.21.25.47.4.79s.32.65.48,1,.33.74.49,1.12.32.74.46,1.07l.46-1.07c.16-.38.32-.76.49-1.12s.32-.71.48-1,.28-.58.4-.79h1.38q.09.66.18,1.5c.05.55.1,1.12.14,1.72L28,113c0,.6.07,1.17.09,1.7H26.65c0-.65,0-1.36-.08-2.13s-.08-1.55-.15-2.33q-.17.41-.39.9l-.42,1-.4,1c-.13.3-.24.55-.33.77H23.82c-.09-.22-.2-.47-.33-.77l-.41-1-.42-1-.39-.9c-.07.78-.11,1.56-.15,2.33s-.05,1.48-.07,2.13H20.57c0-.53.06-1.1.09-1.7l.12-1.8c0-.6.09-1.17.15-1.72s.11-1.06.18-1.5Z"/><path class="cls-4" d="M31.21,109.5a3.22,3.22,0,0,1,1.06.15,1.47,1.47,0,0,1,1,1.07,3.34,3.34,0,0,1,.11.87v3l-.86.16a8.56,8.56,0,0,1-1.34.09,4.16,4.16,0,0,1-.9-.09,1.92,1.92,0,0,1-.7-.29,1.24,1.24,0,0,1-.44-.52,1.67,1.67,0,0,1-.16-.78,1.5,1.5,0,0,1,.18-.76,1.33,1.33,0,0,1,.48-.49,2.12,2.12,0,0,1,.69-.27,4.28,4.28,0,0,1,.81-.08l.5,0a2.15,2.15,0,0,1,.35.07v-.14a.78.78,0,0,0-.22-.59,1.08,1.08,0,0,0-.78-.23,4.49,4.49,0,0,0-.73.06,2.56,2.56,0,0,0-.62.15l-.18-1.17.31-.08.42-.08.47,0A4.07,4.07,0,0,1,31.21,109.5Zm.11,4.23h.41a1.3,1.3,0,0,0,.31,0V112.6a1.18,1.18,0,0,0-.26,0,1.83,1.83,0,0,0-.32,0l-.38,0a1,1,0,0,0-.32.1.46.46,0,0,0-.21.18.45.45,0,0,0-.08.29.48.48,0,0,0,.23.47A1.22,1.22,0,0,0,31.32,113.73Z"/><path class="cls-4" d="M34.74,109.81a7.63,7.63,0,0,1,.95-.2,8,8,0,0,1,1.22-.09,3,3,0,0,1,1.08.17,1.59,1.59,0,0,1,.69.48,1.83,1.83,0,0,1,.36.74,4,4,0,0,1,.1,1v2.88H37.7V112a1.9,1.9,0,0,0-.19-1,.75.75,0,0,0-.68-.29l-.34,0-.31,0v3.94H34.74Z"/><path class="cls-4" d="M42.29,109.5a3.32,3.32,0,0,1,1.07.15,1.59,1.59,0,0,1,.68.41,1.58,1.58,0,0,1,.36.66,3.34,3.34,0,0,1,.11.87v3l-.86.16a8.56,8.56,0,0,1-1.34.09,4.16,4.16,0,0,1-.9-.09,1.8,1.8,0,0,1-.69-.29,1.2,1.2,0,0,1-.45-.52,1.8,1.8,0,0,1-.16-.78,1.5,1.5,0,0,1,.18-.76,1.33,1.33,0,0,1,.48-.49,2.12,2.12,0,0,1,.69-.27,4.28,4.28,0,0,1,.81-.08l.5,0a2.15,2.15,0,0,1,.35.07v-.14a.78.78,0,0,0-.22-.59,1.08,1.08,0,0,0-.78-.23,4.28,4.28,0,0,0-.72.06,2.65,2.65,0,0,0-.63.15l-.18-1.17.32-.08.41-.08.47,0A4.07,4.07,0,0,1,42.29,109.5Zm.11,4.23h.41a1.3,1.3,0,0,0,.31,0V112.6a1.18,1.18,0,0,0-.26,0,1.83,1.83,0,0,0-.32,0l-.38,0a1,1,0,0,0-.32.1.46.46,0,0,0-.21.18.52.52,0,0,0-.08.29.5.5,0,0,0,.23.47A1.22,1.22,0,0,0,42.4,113.73Z"/><path class="cls-4" d="M50.22,114.1a2.48,2.48,0,0,1-.63,1.86,2.78,2.78,0,0,1-2,.61,4.88,4.88,0,0,1-.93-.09,4.33,4.33,0,0,1-.86-.22l.25-1.21a5.83,5.83,0,0,0,.71.22,4.43,4.43,0,0,0,.85.07,1.17,1.17,0,0,0,.88-.27,1,1,0,0,0,.26-.7v-.18a3,3,0,0,1-.48.16,3.1,3.1,0,0,1-.54.05,2.07,2.07,0,0,1-1.62-.62,2.53,2.53,0,0,1-.56-1.76,2.8,2.8,0,0,1,.17-1,2.24,2.24,0,0,1,.51-.79,2.28,2.28,0,0,1,.82-.51,3.13,3.13,0,0,1,1.1-.18l.54,0,.54.07a3.74,3.74,0,0,1,.52.09c.17,0,.32.07.44.11ZM47.05,112c0,.81.33,1.22,1,1.22a1.42,1.42,0,0,0,.42-.06,1.72,1.72,0,0,0,.33-.14v-2.31l-.25,0h-.34a1,1,0,0,0-.86.37A1.65,1.65,0,0,0,47.05,112Z"/><path class="cls-4" d="M51.34,112.23a3.12,3.12,0,0,1,.21-1.19,2.55,2.55,0,0,1,.55-.85,2,2,0,0,1,.78-.51,2.38,2.38,0,0,1,.91-.18,2.22,2.22,0,0,1,1.71.67,2.72,2.72,0,0,1,.63,2c0,.08,0,.18,0,.28a1.84,1.84,0,0,1,0,.26H52.83a1,1,0,0,0,.41.71,1.66,1.66,0,0,0,1,.26,4,4,0,0,0,.78-.07,3,3,0,0,0,.63-.18l.19,1.18a1.77,1.77,0,0,1-.31.11,3.83,3.83,0,0,1-.43.11l-.51.07a4.89,4.89,0,0,1-.54,0,3.14,3.14,0,0,1-1.2-.21,2.27,2.27,0,0,1-.84-.55,2.24,2.24,0,0,1-.5-.84A3.3,3.3,0,0,1,51.34,112.23Zm3.4-.56a1.36,1.36,0,0,0-.07-.35.83.83,0,0,0-.16-.31.89.89,0,0,0-.28-.23.93.93,0,0,0-.42-.08.88.88,0,0,0-.42.08.72.72,0,0,0-.29.22.87.87,0,0,0-.18.31,1.19,1.19,0,0,0-.09.36Z"/><path class="cls-4" d="M60.05,112a2,2,0,0,0-.18-1,.66.66,0,0,0-.61-.29l-.28,0-.28,0v3.94H57.25v-4.93l.43-.1.52-.1.57-.07.58,0a2.48,2.48,0,0,1,.89.14,2.2,2.2,0,0,1,.57.34,2.48,2.48,0,0,1,.71-.35,2.37,2.37,0,0,1,.75-.13,2.6,2.6,0,0,1,1,.17,1.52,1.52,0,0,1,.63.48,1.91,1.91,0,0,1,.32.74,5.44,5.44,0,0,1,.08,1v2.88H62.86V112a2,2,0,0,0-.18-1,.68.68,0,0,0-.62-.29,1.3,1.3,0,0,0-.32.06,1.27,1.27,0,0,0-.35.15,1.78,1.78,0,0,1,.09.47c0,.16,0,.34,0,.53v2.78H60.05Z"/><path class="cls-4" d="M65.37,112.23a3.12,3.12,0,0,1,.21-1.19,2.55,2.55,0,0,1,.55-.85,2.11,2.11,0,0,1,.78-.51,2.38,2.38,0,0,1,.91-.18,2.22,2.22,0,0,1,1.71.67,2.72,2.72,0,0,1,.63,2v.28c0,.1,0,.19,0,.26H66.86a1,1,0,0,0,.41.71,1.66,1.66,0,0,0,1,.26,4,4,0,0,0,.78-.07,3,3,0,0,0,.63-.18l.19,1.18a1.77,1.77,0,0,1-.31.11,3.83,3.83,0,0,1-.43.11l-.51.07a4.89,4.89,0,0,1-.54,0,3.14,3.14,0,0,1-1.2-.21,2.27,2.27,0,0,1-.84-.55,2.24,2.24,0,0,1-.5-.84A3.3,3.3,0,0,1,65.37,112.23Zm3.4-.56a1.36,1.36,0,0,0-.07-.35.83.83,0,0,0-.16-.31.89.89,0,0,0-.28-.23.93.93,0,0,0-.42-.08.9.9,0,0,0-.42.08.72.72,0,0,0-.29.22.87.87,0,0,0-.18.31,1.58,1.58,0,0,0-.09.36Z"/><path class="cls-4" d="M71.28,109.81a8.2,8.2,0,0,1,2.17-.29,3.08,3.08,0,0,1,1.09.17,1.62,1.62,0,0,1,.68.48,1.83,1.83,0,0,1,.36.74,3.93,3.93,0,0,1,.11,1v2.88H74.24V112a2,2,0,0,0-.18-1,.78.78,0,0,0-.69-.29l-.33,0-.31,0v3.94H71.28Z"/><path class="cls-4" d="M77,108.37l1.44-.24v1.51h1.74v1.2H78.39v1.8a1.48,1.48,0,0,0,.16.72.69.69,0,0,0,.65.27,2.74,2.74,0,0,0,.48,0,3,3,0,0,0,.45-.12l.2,1.13a4,4,0,0,1-.58.18,3.4,3.4,0,0,1-.78.08,2.67,2.67,0,0,1-1-.16,1.64,1.64,0,0,1-.63-.45,1.69,1.69,0,0,1-.32-.69,4.16,4.16,0,0,1-.09-.9Z"/><path class="cls-4" d="M86.71,110.92l-.46-.1a2.47,2.47,0,0,0-.56-.06l-.33,0a1.3,1.3,0,0,0-.28,0v3.9H83.63v-4.83a8.9,8.9,0,0,1,.92-.26,5.29,5.29,0,0,1,1.18-.12H86l.33,0,.33.06a1.58,1.58,0,0,1,.28.08Z"/><path class="cls-4" d="M87.39,112.23A3.12,3.12,0,0,1,87.6,111a2.69,2.69,0,0,1,.54-.85,2.15,2.15,0,0,1,.79-.51,2.33,2.33,0,0,1,.9-.18,2.23,2.23,0,0,1,1.72.67,2.72,2.72,0,0,1,.63,2c0,.08,0,.18,0,.28s0,.19,0,.26H88.87a.94.94,0,0,0,.42.71,1.64,1.64,0,0,0,1,.26,4.11,4.11,0,0,0,.78-.07,3.24,3.24,0,0,0,.63-.18l.19,1.18a2.14,2.14,0,0,1-.31.11,3.83,3.83,0,0,1-.43.11l-.51.07a4.93,4.93,0,0,1-.55,0,3.12,3.12,0,0,1-1.19-.21,2.4,2.4,0,0,1-.85-.55,2.22,2.22,0,0,1-.49-.84A3.3,3.3,0,0,1,87.39,112.23Zm3.39-.56a1.35,1.35,0,0,0-.06-.35,1,1,0,0,0-.16-.31.82.82,0,0,0-.29-.23.88.88,0,0,0-.42-.08.93.93,0,0,0-.42.08.89.89,0,0,0-.29.22,1.33,1.33,0,0,0-.18.31,2.37,2.37,0,0,0-.09.36Z"/><path class="cls-4" d="M98,112.19a4.09,4.09,0,0,1-.14,1.08,2.42,2.42,0,0,1-.43.83,2,2,0,0,1-.7.54,2.26,2.26,0,0,1-1,.2,2.47,2.47,0,0,1-.56-.06,2.76,2.76,0,0,1-.51-.16v1.92H93.3v-6.73l.44-.11a4.51,4.51,0,0,1,.53-.09l.56-.07.55,0a3.08,3.08,0,0,1,1.13.19,2.28,2.28,0,0,1,.83.53,2.25,2.25,0,0,1,.52.84A3.23,3.23,0,0,1,98,112.19Zm-1.47,0a1.72,1.72,0,0,0-.3-1.07,1.05,1.05,0,0,0-.9-.41l-.36,0-.27,0v2.61a1.22,1.22,0,0,0,.36.15,1.61,1.61,0,0,0,.44.06C96.22,113.62,96.57,113.15,96.57,112.23Z"/><path class="cls-4" d="M103.93,112.18a3.48,3.48,0,0,1-.17,1.1,2.41,2.41,0,0,1-.51.85,2.21,2.21,0,0,1-.79.55,2.75,2.75,0,0,1-2.06,0,2.3,2.3,0,0,1-.79-.55,2.41,2.41,0,0,1-.51-.85,3.28,3.28,0,0,1,0-2.2,2.41,2.41,0,0,1,.53-.84,2.27,2.27,0,0,1,.79-.54,2.6,2.6,0,0,1,1-.2,2.56,2.56,0,0,1,1,.2,2.18,2.18,0,0,1,.79.54,2.54,2.54,0,0,1,.52.84A3.21,3.21,0,0,1,103.93,112.18Zm-1.47,0a1.77,1.77,0,0,0-.27-1.05.87.87,0,0,0-.76-.39.88.88,0,0,0-.77.39,1.77,1.77,0,0,0-.27,1.05,1.83,1.83,0,0,0,.27,1.06.88.88,0,0,0,.77.39.87.87,0,0,0,.76-.39A1.83,1.83,0,0,0,102.46,112.18Z"/><path class="cls-4" d="M108.12,110.92l-.45-.1a2.62,2.62,0,0,0-.57-.06l-.32,0a1.41,1.41,0,0,0-.29,0v3.9h-1.44v-4.83a8,8,0,0,1,.91-.26,5.42,5.42,0,0,1,1.18-.12h.28l.33,0,.33.06a1.71,1.71,0,0,1,.29.08Z"/><path class="cls-4" d="M109.09,108.37l1.45-.24v1.51h1.74v1.2h-1.74v1.8a1.37,1.37,0,0,0,.16.72.69.69,0,0,0,.64.27,2.59,2.59,0,0,0,.48,0,2.8,2.8,0,0,0,.46-.12l.2,1.13a4.39,4.39,0,0,1-.58.18,3.56,3.56,0,0,1-.79.08,2.75,2.75,0,0,1-1-.16,1.53,1.53,0,0,1-.62-.45,1.71,1.71,0,0,1-.33-.69,4.16,4.16,0,0,1-.09-.9Z"/><path class="cls-4" d="M114.91,113.7a1.32,1.32,0,0,0,.57-.08.29.29,0,0,0,.16-.3.37.37,0,0,0-.21-.3,3.74,3.74,0,0,0-.65-.3,6.1,6.1,0,0,1-.62-.26,2,2,0,0,1-.47-.32,1.31,1.31,0,0,1-.3-.46,1.67,1.67,0,0,1-.1-.63,1.34,1.34,0,0,1,.53-1.13,2.29,2.29,0,0,1,1.46-.42,5.29,5.29,0,0,1,.9.08,5.79,5.79,0,0,1,.68.18l-.26,1.13c-.17-.06-.35-.11-.55-.16a3.23,3.23,0,0,0-.66-.06c-.45,0-.68.12-.68.37a.41.41,0,0,0,0,.16.36.36,0,0,0,.12.13,1.36,1.36,0,0,0,.23.14l.39.16a5.38,5.38,0,0,1,.78.35,1.62,1.62,0,0,1,.49.37,1.1,1.1,0,0,1,.26.44,2.25,2.25,0,0,1,.07.56,1.29,1.29,0,0,1-.57,1.14,2.8,2.8,0,0,1-1.6.39,4.58,4.58,0,0,1-1.14-.12,5.58,5.58,0,0,1-.62-.19l.24-1.18a4.15,4.15,0,0,0,.76.23A3.33,3.33,0,0,0,114.91,113.7Z"/><path class="cls-4" d="M52.2,119.81a.79.79,0,0,1-.26.62.91.91,0,0,1-1.21,0,.88.88,0,0,1,0-1.25.91.91,0,0,1,1.21,0A.8.8,0,0,1,52.2,119.81Zm-.14,6.57H50.62v-5.1h1.44Z"/><path class="cls-4" d="M53.42,121.45a8.79,8.79,0,0,1,.95-.19,8.06,8.06,0,0,1,1.23-.1,3.06,3.06,0,0,1,1.08.17,1.81,1.81,0,0,1,.68.48,1.89,1.89,0,0,1,.36.74,4,4,0,0,1,.11,1v2.88H56.38v-2.7a2,2,0,0,0-.18-1,.76.76,0,0,0-.69-.29h-.33l-.31,0v3.93H53.42Z"/><path class="cls-4" d="M58.66,128.18l-.4,0a1.93,1.93,0,0,1-.5-.11l.19-1.17.27.07.31,0a.52.52,0,0,0,.47-.21,1,1,0,0,0,.14-.59v-4.88h1.44v4.92a2,2,0,0,1-.49,1.49A1.94,1.94,0,0,1,58.66,128.18Zm2.06-8.37a.79.79,0,0,1-.26.62.91.91,0,0,1-1.21,0,.88.88,0,0,1,0-1.25.91.91,0,0,1,1.21,0A.8.8,0,0,1,60.72,119.81Z"/><path class="cls-4" d="M66.3,126.21a8.2,8.2,0,0,1-2.18.29,3.06,3.06,0,0,1-1.08-.17,1.66,1.66,0,0,1-.68-.49,1.85,1.85,0,0,1-.36-.76,4.08,4.08,0,0,1-.11-1v-2.84h1.45V124a2.14,2.14,0,0,0,.18,1,.75.75,0,0,0,.69.31l.33,0,.31,0v-3.94H66.3Z"/><path class="cls-4" d="M70.73,122.56l-.45-.1a2.63,2.63,0,0,0-.57,0,1.89,1.89,0,0,0-.32,0l-.29,0v3.9H67.66v-4.83a8.18,8.18,0,0,1,.91-.25,4.85,4.85,0,0,1,1.18-.13l.28,0,.33,0a1.91,1.91,0,0,1,.33.06,1.36,1.36,0,0,1,.28.08Z"/><path class="cls-4" d="M76.59,121.28c-.29,1-.59,1.91-.91,2.77s-.67,1.69-1,2.5a5.45,5.45,0,0,1-.41.74,2.52,2.52,0,0,1-.45.51,1.53,1.53,0,0,1-.55.29,2.5,2.5,0,0,1-.71.09,3.06,3.06,0,0,1-.63-.06,4,4,0,0,1-.47-.14l.25-1.16a2.73,2.73,0,0,0,.4.11,2.22,2.22,0,0,0,.37,0,.81.81,0,0,0,.6-.21,1.69,1.69,0,0,0,.35-.58c-.33-.65-.66-1.37-1-2.18a26.59,26.59,0,0,1-.93-2.71H73c.07.25.14.53.23.82s.18.59.28.89.2.6.3.88.19.54.28.78c.09-.24.18-.49.27-.78s.18-.58.26-.88.18-.59.26-.89.15-.57.22-.82Z"/><path class="cls-4" d="M81.27,119.81a.79.79,0,0,1-.26.62.91.91,0,0,1-1.21,0,.88.88,0,0,1,0-1.25.91.91,0,0,1,1.21,0A.8.8,0,0,1,81.27,119.81Zm-.14,6.57H79.69v-5.1h1.44Z"/><path class="cls-4" d="M82.49,121.45a8.31,8.31,0,0,1,1-.19,8,8,0,0,1,1.22-.1,3.08,3.08,0,0,1,1.09.17,1.74,1.74,0,0,1,.68.48,1.89,1.89,0,0,1,.36.74,4,4,0,0,1,.11,1v2.88H85.45v-2.7a2,2,0,0,0-.18-1,.76.76,0,0,0-.69-.29h-.33l-.31,0v3.93H82.49Z"/><path class="cls-4" d="M29.88,131.3c.11.22.25.48.4.8l.48,1c.16.37.33.74.49,1.13s.31.74.46,1.07l.45-1.07c.17-.39.33-.76.5-1.13s.32-.7.47-1,.29-.58.41-.8h1.37q.11.67.18,1.5c.06.56.11,1.13.15,1.73l.12,1.8c0,.6.06,1.17.09,1.7H34c0-.65,0-1.37-.08-2.14s-.08-1.54-.14-2.32l-.39.9-.42,1-.41.94-.33.78H31.14l-.33-.78-.4-.94-.42-1q-.22-.5-.39-.9c-.07.78-.12,1.55-.15,2.32s-.06,1.49-.08,2.14H27.9c0-.53.05-1.1.09-1.7s.07-1.2.12-1.8.09-1.17.14-1.73.12-1.05.18-1.5Z"/><path class="cls-4" d="M38.53,132.79a3.24,3.24,0,0,1,1.07.15,1.59,1.59,0,0,1,.68.41,1.44,1.44,0,0,1,.37.66,3.35,3.35,0,0,1,.1.87v3c-.2.05-.49.1-.86.16a7.33,7.33,0,0,1-1.34.1,4.16,4.16,0,0,1-.9-.09,1.94,1.94,0,0,1-.69-.29,1.34,1.34,0,0,1-.45-.52,1.81,1.81,0,0,1-.15-.78,1.5,1.5,0,0,1,.18-.76,1.33,1.33,0,0,1,.48-.49,1.92,1.92,0,0,1,.69-.27,3.56,3.56,0,0,1,.8-.08,3.78,3.78,0,0,1,.5,0l.36.06v-.13a.79.79,0,0,0-.23-.59,1.06,1.06,0,0,0-.77-.23,4.4,4.4,0,0,0-.73.06,2.45,2.45,0,0,0-.62.15L36.83,133l.32-.08.41-.08.47-.06Zm.12,4.23h.41l.31,0v-1.1l-.26,0a1.89,1.89,0,0,0-.32,0,2.42,2.42,0,0,0-.39,0,1.26,1.26,0,0,0-.31.09.59.59,0,0,0-.22.19.5.5,0,0,0-.07.29.49.49,0,0,0,.22.47A1.26,1.26,0,0,0,38.65,137Z"/><path class="cls-4" d="M42.06,133.1a8.28,8.28,0,0,1,1-.2,7.86,7.86,0,0,1,1.22-.09,3.06,3.06,0,0,1,1.08.17,1.5,1.5,0,0,1,.68.48,1.83,1.83,0,0,1,.36.74,3.93,3.93,0,0,1,.11,1V138H45v-2.71a2,2,0,0,0-.18-1,.76.76,0,0,0-.69-.29l-.33,0-.31,0V138H42.06Z"/><path class="cls-4" d="M49.61,132.79a3.24,3.24,0,0,1,1.07.15,1.63,1.63,0,0,1,.69.41,1.52,1.52,0,0,1,.36.66,3.34,3.34,0,0,1,.11.87v3c-.21.05-.5.1-.87.16a7.33,7.33,0,0,1-1.34.1,4,4,0,0,1-.89-.09,1.92,1.92,0,0,1-.7-.29,1.24,1.24,0,0,1-.44-.52,1.67,1.67,0,0,1-.16-.78,1.5,1.5,0,0,1,.18-.76,1.33,1.33,0,0,1,.48-.49,1.92,1.92,0,0,1,.69-.27,3.56,3.56,0,0,1,.8-.08,3.78,3.78,0,0,1,.5,0l.36.06v-.13a.82.82,0,0,0-.22-.59,1.08,1.08,0,0,0-.78-.23,4.4,4.4,0,0,0-.73.06,2.56,2.56,0,0,0-.62.15L47.92,133l.31-.08.41-.08.47-.06Zm.12,4.23h.41l.31,0v-1.1l-.26,0a1.89,1.89,0,0,0-.32,0,2.42,2.42,0,0,0-.39,0,1.26,1.26,0,0,0-.31.09.67.67,0,0,0-.22.19.5.5,0,0,0-.07.29.49.49,0,0,0,.22.47A1.26,1.26,0,0,0,49.73,137Z"/><path class="cls-4" d="M57.55,137.39a2.45,2.45,0,0,1-.64,1.86,2.75,2.75,0,0,1-2,.6,4.87,4.87,0,0,1-.93-.08,5.14,5.14,0,0,1-.86-.22l.25-1.21a3.91,3.91,0,0,0,.71.21,4.31,4.31,0,0,0,.85.08,1.19,1.19,0,0,0,.88-.27,1,1,0,0,0,.26-.7v-.18a2.81,2.81,0,0,1-.49.16,2.89,2.89,0,0,1-.53.05,2,2,0,0,1-1.62-.63,2.49,2.49,0,0,1-.57-1.75,2.8,2.8,0,0,1,.18-1,2,2,0,0,1,.51-.79,2.2,2.2,0,0,1,.82-.51,3.12,3.12,0,0,1,1.09-.18l.54,0,.55.07a4.34,4.34,0,0,1,.52.09l.44.11Zm-3.17-2.08c0,.81.32,1.22,1,1.22a1.42,1.42,0,0,0,.42-.06,2.52,2.52,0,0,0,.33-.14V134l-.26,0-.34,0a1,1,0,0,0-.85.38A1.54,1.54,0,0,0,54.38,135.31Z"/><path class="cls-4" d="M58.67,135.52a3.29,3.29,0,0,1,.2-1.19,2.6,2.6,0,0,1,.55-.85,2.37,2.37,0,0,1,.78-.52,2.62,2.62,0,0,1,.91-.17,2.26,2.26,0,0,1,1.72.66,2.77,2.77,0,0,1,.63,2c0,.08,0,.18,0,.28s0,.18,0,.26H60.15a.94.94,0,0,0,.42.71,1.62,1.62,0,0,0,1,.26,4.11,4.11,0,0,0,.78-.07,3.46,3.46,0,0,0,.63-.18l.19,1.17a2,2,0,0,1-.31.12l-.43.1-.51.08a5.06,5.06,0,0,1-.55,0,3.13,3.13,0,0,1-1.19-.2,2.34,2.34,0,0,1-.85-.56,2.07,2.07,0,0,1-.49-.84A3.19,3.19,0,0,1,58.67,135.52Zm3.39-.56a1.13,1.13,0,0,0-.06-.36.94.94,0,0,0-.17-.31.78.78,0,0,0-.28-.22.87.87,0,0,0-.42-.09.93.93,0,0,0-.42.09.86.86,0,0,0-.29.21,1.4,1.4,0,0,0-.18.32,2.37,2.37,0,0,0-.09.36Z"/><path class="cls-4" d="M66.46,131.3c.12.22.25.48.4.8l.48,1c.16.37.33.74.49,1.13s.31.74.46,1.07l.45-1.07c.17-.39.33-.76.5-1.13s.32-.7.47-1,.29-.58.41-.8h1.37q.11.67.18,1.5c.06.56.11,1.13.15,1.73l.12,1.8c0,.6.06,1.17.09,1.7H70.55c0-.65,0-1.37-.07-2.14s-.09-1.54-.15-2.32l-.39.9-.42,1-.41.94-.33.78H67.72l-.33-.78-.4-.94-.42-1q-.22-.5-.39-.9c-.07.78-.12,1.55-.15,2.32S66,137.38,66,138H64.48c0-.53.06-1.1.09-1.7l.12-1.8c0-.6.09-1.17.14-1.73s.12-1.05.18-1.5Z"/><path class="cls-4" d="M77.82,132.93c-.29,1-.6,1.9-.91,2.76s-.67,1.7-1,2.5a7,7,0,0,1-.41.75,2.45,2.45,0,0,1-.45.5,1.61,1.61,0,0,1-.55.29,2.5,2.5,0,0,1-.71.09,3.06,3.06,0,0,1-.63-.06,2.69,2.69,0,0,1-.47-.14l.25-1.15a2.59,2.59,0,0,0,.4.1,2.22,2.22,0,0,0,.37,0,.77.77,0,0,0,.59-.21,1.74,1.74,0,0,0,.36-.57c-.33-.65-.66-1.38-1-2.18a27.47,27.47,0,0,1-.93-2.71h1.53c.06.25.14.52.23.81s.18.6.28.9.19.59.29.88.2.54.29.77c.09-.23.17-.49.26-.77s.19-.58.27-.88.18-.6.26-.9l.22-.81Z"/><path class="cls-4" d="M78.68,131.3H80.2V138H78.68Z"/><path class="cls-4" d="M81.65,133.1a8.52,8.52,0,0,1,.95-.2,8.09,8.09,0,0,1,1.23-.09,3.06,3.06,0,0,1,1.08.17,1.56,1.56,0,0,1,.68.48,1.83,1.83,0,0,1,.36.74,3.93,3.93,0,0,1,.11,1V138H84.61v-2.71a2,2,0,0,0-.18-1,.76.76,0,0,0-.69-.29l-.33,0-.31,0V138H81.65Z"/><path class="cls-4" d="M86.89,139.82l-.4,0a2,2,0,0,1-.5-.1l.19-1.18a1.08,1.08,0,0,0,.27.07,1.37,1.37,0,0,0,.31,0,.54.54,0,0,0,.47-.2,1.09,1.09,0,0,0,.14-.59v-4.88h1.44v4.91a2,2,0,0,1-.49,1.5A2,2,0,0,1,86.89,139.82ZM89,131.45a.81.81,0,0,1-.26.63.94.94,0,0,1-1.21,0,.81.81,0,0,1-.26-.63.83.83,0,0,1,.26-.63.94.94,0,0,1,1.21,0A.83.83,0,0,1,89,131.45Z"/><path class="cls-4" d="M94.53,137.85a6.43,6.43,0,0,1-1,.2,6.93,6.93,0,0,1-1.22.1,2.85,2.85,0,0,1-1.09-.18,1.73,1.73,0,0,1-.68-.49,1.87,1.87,0,0,1-.36-.75,4.08,4.08,0,0,1-.11-1v-2.84h1.45v2.66a2.08,2.08,0,0,0,.18,1,.74.74,0,0,0,.69.31h.33l.31,0v-3.94h1.45Z"/><path class="cls-4" d="M99,134.21l-.45-.11a3.45,3.45,0,0,0-.57,0l-.32,0-.29.06V138H95.89V133.2a8.66,8.66,0,0,1,.91-.26,5.42,5.42,0,0,1,1.18-.12h.28l.33,0,.33.06a1.71,1.71,0,0,1,.29.08Z"/><path class="cls-4" d="M101.56,131.45a.81.81,0,0,1-.25.63.92.92,0,0,1-.61.22.9.9,0,0,1-.61-.22.81.81,0,0,1-.25-.63.82.82,0,0,1,.25-.63.9.9,0,0,1,.61-.22.92.92,0,0,1,.61.22A.82.82,0,0,1,101.56,131.45Zm-.13,6.58H100v-5.1h1.45Z"/><path class="cls-4" d="M102.54,135.52a3.09,3.09,0,0,1,.21-1.19,2.45,2.45,0,0,1,.55-.85,2.37,2.37,0,0,1,.78-.52,2.58,2.58,0,0,1,.91-.17,2.28,2.28,0,0,1,1.72.66,2.77,2.77,0,0,1,.63,2c0,.08,0,.18,0,.28s0,.18,0,.26H104a.94.94,0,0,0,.42.71,1.6,1.6,0,0,0,1,.26,4.15,4.15,0,0,0,.79-.07,3.12,3.12,0,0,0,.62-.18l.2,1.17-.31.12a4.13,4.13,0,0,1-.44.1l-.51.08a4.87,4.87,0,0,1-.54,0,3.14,3.14,0,0,1-1.2-.2,2.29,2.29,0,0,1-.84-.56,2.09,2.09,0,0,1-.5-.84A3.49,3.49,0,0,1,102.54,135.52Zm3.4-.56a2.25,2.25,0,0,0-.06-.36.94.94,0,0,0-.17-.31.88.88,0,0,0-.28-.22A.87.87,0,0,0,105,134a.93.93,0,0,0-.42.09.78.78,0,0,0-.29.21.92.92,0,0,0-.18.32,2.37,2.37,0,0,0-.09.36Z"/><path class="cls-4" d="M109.92,137a1.47,1.47,0,0,0,.56-.08.3.3,0,0,0,.17-.3.37.37,0,0,0-.22-.3,3.74,3.74,0,0,0-.65-.3,5.89,5.89,0,0,1-.61-.26,1.52,1.52,0,0,1-.47-.33,1.34,1.34,0,0,1-.31-.45,1.67,1.67,0,0,1-.1-.63,1.37,1.37,0,0,1,.53-1.13,2.34,2.34,0,0,1,1.47-.42,5.17,5.17,0,0,1,.89.08,5.79,5.79,0,0,1,.68.18l-.25,1.13c-.17-.06-.36-.11-.55-.16a3.36,3.36,0,0,0-.67-.07c-.45,0-.68.13-.68.38a.41.41,0,0,0,0,.16.36.36,0,0,0,.12.13,1.29,1.29,0,0,0,.24.13l.38.17a5.63,5.63,0,0,1,.79.34,2.24,2.24,0,0,1,.49.37,1.22,1.22,0,0,1,.25.44,2,2,0,0,1,.07.57,1.29,1.29,0,0,1-.57,1.14,2.78,2.78,0,0,1-1.6.38,4.49,4.49,0,0,1-1.13-.11,4,4,0,0,1-.63-.2l.24-1.17a5.11,5.11,0,0,0,.76.23A4.11,4.11,0,0,0,109.92,137Z"/></svg>