<svg id="Layer_1" data-name="Layer 1" xmlns="http://www.w3.org/2000/svg" viewBox="0 0 640 448"><defs><style>.cls-1{fill:#a7d290;}.cls-2{fill:#00a0e8;}.cls-2,.cls-3,.cls-5,.cls-8{fill-rule:evenodd;}.cls-3,.cls-4{fill:#a6d190;}.cls-5,.cls-6{fill:#fff;}.cls-7{fill:#eeeeef;}.cls-8,.cls-9{fill:#888;}.cls-10{fill:#f84a00;}.cls-11{font-size:14.68px;font-family:Ubuntu-Bold, Ubuntu;font-weight:700;}.cls-12{letter-spacing:-0.01em;}.cls-13{letter-spacing:-0.01em;}</style></defs><title>map</title><rect class="cls-1" width="640" height="448"/><path class="cls-2" d="M0,0H395.14c-6.47,29.81-33.2,63.4-55.66,78.1-31.68,20.74-77.77,31.11-110,31.68C201.84,110.28,44.79,89.26,0,83.18Z" transform="translate(0 0)"/><path class="cls-3" d="M0,304.81V121.7L270.71,251.79l-1.49,150.46-129.86-6.1s5.21-39.71-8.22-62.61S93,305.25,93,305.25Z" transform="translate(0 0)"/><polygon class="cls-3" points="0 0 366.51 0 351.08 33.35 317.6 63.37 231.59 80.69 58.98 66.25 0 56.89 0 0"/><circle class="cls-4" cx="529.18" cy="114.46" r="48.59"/><path class="cls-5" d="M261.72,249.25l-1.15,152.4,17.31,1.19s.74-157.3,1.09-152.34S261.72,249.25,261.72,249.25Z" transform="translate(0 0)"/><path class="cls-5" d="M356.28,0h20.46c-6,17.12-23.42,54.92-65.49,73.76C255.83,98.58,200.41,91.65,200.41,91.65S33.4,72.08,0,67.7V49.34c28.26,3.24,197.83,25,216,25,19.63,0,75.63-5.78,101-24.25S356.28,0,356.28,0Z" transform="translate(0 0)"/><path class="cls-5" d="M390.34,163.81c-1.5-3.32-80.24-97.56-80.24-97.56l-17.32,4.62s85.74,102.27,81.4,101S390.34,163.81,390.34,163.81Z" transform="translate(0 0)"/><path class="cls-5" d="M512.91,0h15.61c.55,16.87,2,60.52,2.1,55.86.14-5.75-14.43,5.2-14.43,5.2Z" transform="translate(0 0)"/><polygon class="cls-5" points="640 101.2 640 117.61 586.04 114.17 591.59 98.63 640 101.2"/><path class="cls-5" d="M492.09,448H476.72c1.92-17.18,10.74-83.64,10.74-83.64l16-8.89C504.44,358.5,494.83,430.17,492.09,448Z" transform="translate(0 0)"/><path class="cls-5" d="M472.31,116.48l-99.87,45s-22.8,80.39-23.09,76.21,18.48,1.15,18.48,1.15l20.2-67,87.17-39.26Z" transform="translate(0 0)"/><polygon class="cls-5" points="519.07 171.9 521.38 229.05 541.15 237.98 538.13 165.55 519.07 171.9"/><path class="cls-5" d="M128.83,390.69c.11-3.48,3.46-22.52-3.46-42.72s-27.14-31.75-27.14-31.75l16.38-7.94s26.34,18.33,31,42.57-1.15,47.92-1.15,47.92Z" transform="translate(0 0)"/><path class="cls-5" d="M122.29,448H104.84c.92-14.53,2.81-44.36,3-48.65l18.48-.58Z" transform="translate(0 0)"/><polygon class="cls-5" points="479.82 231.93 503.49 348.55 487.32 353.16 461.92 232.51 479.82 231.93"/><polygon class="cls-5" points="640 298.2 640 316.68 334.92 412.05 0 400.85 0 383.22 334.92 393.57 640 298.2"/><polygon class="cls-5" points="0 316.22 0 298.9 98.81 298.9 147.88 190.95 164.62 200.18 110.94 316.22 0 316.22"/><polygon class="cls-5" points="640 213.24 640 231.02 266.22 257.33 0 130.23 0 109.78 272.57 238.86 640 213.24"/><path class="cls-5" d="M529.18,50.09a64.37,64.37,0,1,1-64.37,64.37,64.36,64.36,0,0,1,64.37-64.37Zm0,17.32a47,47,0,1,0,47.05,47.05A47,47,0,0,0,529.18,67.41Z" transform="translate(0 0)"/><rect class="cls-6" x="270.43" y="280.28" width="208.49" height="5.79"/><rect class="cls-6" x="413.82" y="241.71" width="4.61" height="44.36"/><polygon class="cls-5" points="353.57 244.05 358.56 245.41 331.4 401.71 326.4 400.35 353.57 244.05"/><path class="cls-5" d="M625.85,347.44V320.17l-6,.11v27a26.84,26.84,0,0,1-26.77,26.76H498.82v6.11h94.31A32.82,32.82,0,0,0,625.85,347.44Z" transform="translate(0 0)"/><path class="cls-5" d="M625.85,347.44V320.17l-6,.11v27a26.84,26.84,0,0,1-26.77,26.76H498.82v6.11h94.31A32.82,32.82,0,0,0,625.85,347.44Z" transform="translate(0 0)"/><rect class="cls-6" x="395.88" y="281.5" width="5.9" height="98.06"/><polygon class="cls-5" points="530.11 201.76 427.64 201.76 383.08 188.31 374.07 177.76 429.37 195.05 527.31 195.05 530.11 201.76"/><rect class="cls-6" x="467.97" y="199.48" width="5.79" height="30.37"/><rect class="cls-6" x="46.84" y="312" width="5.19" height="81.23"/><rect class="cls-6" y="342.53" width="52.02" height="5.76"/><rect class="cls-6" x="91.13" y="319.57" width="5.07" height="87.86" transform="translate(-277.3 420.88) rotate(-84.34)"/><path class="cls-5" d="M205,181v33l7.21-.14v-32.7a32.5,32.5,0,0,1,32.4-32.4H358.76v-7.38H244.62A39.73,39.73,0,0,0,205,181Z" transform="translate(0 0)"/><rect class="cls-6" x="369.81" y="282.73" width="5.33" height="53.19" transform="translate(-9.29 607.12) rotate(-77.66)"/><rect class="cls-6" x="66.18" y="122.12" width="101.78" height="5.95" transform="translate(-40.71 191.87) rotate(-69.84)"/><rect class="cls-6" x="522.13" y="18.79" width="117.87" height="5.76"/><rect class="cls-6" y="246.9" width="130.95" height="6.34"/><rect class="cls-6" x="73.34" y="251.86" width="5.76" height="51.95"/><rect class="cls-7" x="234.07" y="404.75" width="5.18" height="43.25"/><rect class="cls-6" x="558.63" y="377.1" width="6.34" height="70.9"/><rect class="cls-6" x="531.27" y="233.51" width="5.84" height="108.44"/><polygon class="cls-8" points="286.5 261.88 325.1 258.99 325.1 272.25 287.07 272.25 286.5 261.88"/><polygon class="cls-8" points="460.48 264.76 459.33 249.78 428.8 252.66 428.8 263.6 460.48 264.76"/><circle class="cls-9" cx="529.18" cy="114.46" r="14.11" transform="translate(74.06 407.71) rotate(-45)"/><rect class="cls-9" x="65.27" y="229.61" width="37.45" height="12.67"/><rect class="cls-9" x="33.01" y="257.84" width="33.41" height="12.1"/><rect class="cls-9" x="531.92" y="383.43" width="21.32" height="13.83"/><rect class="cls-9" x="542.58" y="405.33" width="10.66" height="23.04"/><rect class="cls-6" x="91.77" width="7.49" height="65.42"/><rect class="cls-6" x="83.29" y="360.84" width="5.02" height="31.57"/><rect class="cls-6" x="606.24" y="18.79" width="6.78" height="89.32"/><rect class="cls-6" x="620.64" y="108.05" width="5.18" height="114.07"/><rect class="cls-6" y="16.45" width="99.26" height="6.34"/><rect class="cls-6" x="119.23" y="311.06" width="169.51" height="5.85" transform="translate(-150.94 433.25) rotate(-75.56)"/><path d="M397.53,96.28h-2.86V93.42a1.16,1.16,0,0,0-1.16-1.16H387a1.17,1.17,0,0,0-1.17,1.16v2.86H383a1.17,1.17,0,0,0-1.17,1.17V104a1.17,1.17,0,0,0,1.17,1.17h2.85V108a1.17,1.17,0,0,0,1.17,1.16h6.54a1.16,1.16,0,0,0,1.16-1.16v-2.86h2.86A1.17,1.17,0,0,0,398.7,104V97.45A1.17,1.17,0,0,0,397.53,96.28Zm-1.17,6.53h-4v4h-4.2v-4h-4v-4.2h4v-4h4.2v4h4Z" transform="translate(0 0)"/><path d="M434.53,125.59h-5.14V103.17a1.18,1.18,0,0,0-1.17-1.17H405.8V85.41a1.17,1.17,0,0,0-1.17-1.17H375.84a1.16,1.16,0,0,0-1.16,1.17v40.18h-5.53a1.17,1.17,0,0,0,0,2.34h6.32l.19,0,.18,0h34.69a1.17,1.17,0,0,0,1.16-1.17V116.13h9.46v10.63a1.18,1.18,0,0,0,1.17,1.17h12.21a1.18,1.18,0,0,0,1.17-1.17A1.17,1.17,0,0,0,434.53,125.59ZM377,86.57h26.45v39H377Zm45.31,27.23H410.53a1.17,1.17,0,0,0-1.17,1.17v10.62H405.8V104.34h21.25v21.25h-3.56V115A1.17,1.17,0,0,0,422.32,113.8Z" transform="translate(0 0)"/><path d="M159.37,280.61h-2.86v-2.86a1.17,1.17,0,0,0-1.16-1.17h-6.54a1.17,1.17,0,0,0-1.16,1.17v2.86h-2.86a1.16,1.16,0,0,0-1.17,1.16v6.54a1.17,1.17,0,0,0,1.17,1.17h2.86v2.85a1.16,1.16,0,0,0,1.16,1.17h6.54a1.16,1.16,0,0,0,1.16-1.17v-2.85h2.86a1.17,1.17,0,0,0,1.17-1.17v-6.54A1.16,1.16,0,0,0,159.37,280.61Zm-1.16,6.53h-4v4H150v-4h-4v-4.2h4v-4h4.2v4h4Z" transform="translate(0 0)"/><path d="M196.37,309.92h-5.14V287.5a1.17,1.17,0,0,0-1.17-1.17H167.64v-16.6a1.16,1.16,0,0,0-1.17-1.16H137.69a1.16,1.16,0,0,0-1.17,1.16v40.19H131a1.17,1.17,0,0,0,0,2.33h41.38a1.17,1.17,0,0,0,1.17-1.16V300.46H183v10.63a1.16,1.16,0,0,0,1.16,1.16h12.21a1.17,1.17,0,1,0,0-2.33Zm-57.52-39h26.46v39H138.85Zm45.31,27.23H172.37a1.16,1.16,0,0,0-1.17,1.16v10.63h-3.56V288.67h21.25v21.25h-3.56V299.29A1.16,1.16,0,0,0,184.16,298.13Z" transform="translate(0 0)"/><path d="M437.49,310h-2.85v-2.86a1.17,1.17,0,0,0-1.17-1.16h-6.54a1.16,1.16,0,0,0-1.16,1.16V310h-2.86a1.17,1.17,0,0,0-1.17,1.17v6.53a1.17,1.17,0,0,0,1.17,1.17h2.86v2.86a1.16,1.16,0,0,0,1.16,1.16h6.54a1.16,1.16,0,0,0,1.17-1.16v-2.86h2.85a1.17,1.17,0,0,0,1.17-1.17v-6.53A1.17,1.17,0,0,0,437.49,310Zm-1.16,6.53h-4v4h-4.2v-4h-4v-4.2h4v-4h4.2v4h4Z" transform="translate(0 0)"/><path d="M474.5,339.28h-5.15V316.86a1.17,1.17,0,0,0-1.17-1.17H445.76V299.1a1.16,1.16,0,0,0-1.16-1.17H415.81a1.17,1.17,0,0,0-1.17,1.17v40.18h-5.52a1.17,1.17,0,1,0,0,2.34h6.31l.19,0,.19,0h34.68a1.17,1.17,0,0,0,1.17-1.17V329.82h9.46v10.63a1.17,1.17,0,0,0,1.17,1.17H474.5a1.17,1.17,0,0,0,0-2.34Zm-57.52-39h26.45v39H417Zm45.31,27.23h-11.8a1.16,1.16,0,0,0-1.16,1.17v10.62h-3.57V318H467v21.25h-3.57V328.66A1.16,1.16,0,0,0,462.29,327.49Z" transform="translate(0 0)"/><path d="M268.29,224h73.2v-5.81h-4.87V195c0-3.2-5.09-3.2-5.09,0v1h-1.24v-1c0-3.2-5.08-3.2-5.08,0v1h-4.08V182.59h.64v-2.18h.67v-4.12h-8.61v4.12h.67v2.18h.64v13.8H307.3L305.52,186V173.13h-9.75V186L294,196.39h-3.94L288.26,186V167.82h-9.74V186l-1.79,10.4h-3.58v21.84h-4.86V224Zm62.15-5.81H319v-4.15c0-7.55,11.42-7.55,11.42,0v4.15Zm-51.92-51.81v-2.67h9.74v2.67Zm17.25,5.31v-2.67h9.75v2.67Zm35.77,25.13v2.21h-1.25v-2.21Zm-6.33,0v2.21h-4.08v-2.21Zm6.33,3.15v3.45h-1.25V200Zm-6.33,0v3.45h-4.08V200Zm-37.92,6.46h-6v-6h6v6Zm0,8.86h-6v-6h6v6Zm25.65,0h-6v-6h6v6Zm-8.55,0h-6v-6h6v6Zm-8.55,0h-6v-6h6v6Zm17.1-8.86h-6v-6h6v6Zm-8.55,0h-6v-6h6v6Zm-8.55,0h-6v-6h6Z" transform="translate(0 0)"/><path d="M223.8,30.22H221V27.36a1.17,1.17,0,0,0-1.17-1.17h-6.53a1.17,1.17,0,0,0-1.17,1.17v2.86h-2.86a1.17,1.17,0,0,0-1.17,1.16v6.54a1.18,1.18,0,0,0,1.17,1.17h2.86v2.85a1.17,1.17,0,0,0,1.17,1.17h6.53A1.17,1.17,0,0,0,221,41.94V39.09h2.85A1.17,1.17,0,0,0,225,37.92V31.38A1.16,1.16,0,0,0,223.8,30.22Zm-1.16,6.53h-4v4h-4.2v-4h-4v-4.2h4v-4h4.2v4h4Z" transform="translate(0 0)"/><path d="M260.81,59.53h-5.15V37.11a1.17,1.17,0,0,0-1.17-1.17H232.07V19.34a1.16,1.16,0,0,0-1.16-1.16H202.12A1.16,1.16,0,0,0,201,19.34V59.53h-5.52a1.17,1.17,0,1,0,0,2.33h6.31l.19,0,.19,0H236.8A1.17,1.17,0,0,0,238,60.69V50.07h9.46V60.69a1.17,1.17,0,0,0,1.17,1.17h12.21a1.17,1.17,0,0,0,0-2.33Zm-57.52-39h26.45v39H203.29ZM248.6,47.73H236.8a1.17,1.17,0,0,0-1.16,1.17V59.53h-3.57V38.27h21.26V59.53h-3.57V48.9A1.17,1.17,0,0,0,248.6,47.73Z" transform="translate(0 0)"/><g id="Layer_2" data-name="Layer 2"><g id="Layer_1-2" data-name="Layer 1-2"><rect class="cls-10" x="160.35" y="143.56" width="28.68" height="24.97"/><rect class="cls-10" x="136.7" y="126.02" width="28.68" height="41.33"/><path d="M158.35,136.88h-2.86V134a1.16,1.16,0,0,0-1.16-1.17H147.8a1.16,1.16,0,0,0-1.16,1.17h0v2.85h-2.88a1.16,1.16,0,0,0-1.16,1.17h0v6.52a1.16,1.16,0,0,0,1.16,1.17h2.87v2.85a1.16,1.16,0,0,0,1.16,1.17h6.53a1.16,1.16,0,0,0,1.16-1.17v-2.85h2.86a1.17,1.17,0,0,0,1.17-1.17h0v-6.52A1.17,1.17,0,0,0,158.35,136.88Zm-1.17,6.53h-4v4H149v-4h-4v-4.2h4v-4h4.2v4h4Z" transform="translate(0 0)"/><path d="M195.35,166.19h-5.14V143.77a1.17,1.17,0,0,0-1.17-1.16H166.62V126a1.17,1.17,0,0,0-1.17-1.17H136.66a1.17,1.17,0,0,0-1.17,1.17h0v40.18H130a1.17,1.17,0,0,0,0,2.34h41.38a1.17,1.17,0,0,0,1.16-1.17h0v-10.6H182v10.6a1.17,1.17,0,0,0,1.16,1.17h12.24a1.17,1.17,0,0,0,0-2.34Zm-57.52-39h26.46v39H137.83Zm45.31,27.23H171.35a1.17,1.17,0,0,0-1.17,1.17h0v10.6h-3.56V144.94h21.25v21.25h-3.56v-10.6a1.17,1.17,0,0,0-1.14-1.19Z" transform="translate(0 0)"/></g></g><g id="Layer_2-2" data-name="Layer 2"><g id="Layer_1-2-2" data-name="Layer 1-2"><rect class="cls-10" x="590.45" y="260.19" width="28.68" height="24.97"/><rect class="cls-10" x="566.8" y="242.66" width="28.68" height="41.33"/><path d="M588.45,253.51h-2.86v-2.85a1.16,1.16,0,0,0-1.16-1.17H577.9a1.17,1.17,0,0,0-1.17,1.17h0v2.85h-2.87a1.16,1.16,0,0,0-1.16,1.17h0v6.52a1.16,1.16,0,0,0,1.16,1.17h2.87v2.85a1.16,1.16,0,0,0,1.16,1.17h6.53a1.16,1.16,0,0,0,1.16-1.17v-2.85h2.86a1.16,1.16,0,0,0,1.16-1.17h0v-6.52A1.17,1.17,0,0,0,588.45,253.51ZM587.28,260h-4v4h-4.2v-4h-4v-4.2h4v-4h4.2v4h4Z" transform="translate(0 0)"/><path d="M625.45,282.83H620.3V260.4a1.16,1.16,0,0,0-1.16-1.16H596.72v-16.6a1.18,1.18,0,0,0-1.17-1.17H566.76a1.17,1.17,0,0,0-1.17,1.17h0v40.19h-5.52a1.17,1.17,0,1,0,0,2.33h41.38a1.16,1.16,0,0,0,1.16-1.17h0v-10.6h9.46V284a1.17,1.17,0,0,0,1.17,1.17h12.23a1.17,1.17,0,1,0,0-2.33Zm-57.52-39h26.45v39H567.93ZM613.24,271H601.45a1.17,1.17,0,0,0-1.17,1.17h0v10.6h-3.56V261.57H618v21.26h-3.56V272.22a1.18,1.18,0,0,0-1.14-1.19Z" transform="translate(0 0)"/></g></g><text class="cls-11" transform="translate(128.47 120.76)">P<tspan class="cls-12" x="9.45" y="0">r</tspan><tspan x="15.5" y="0">e</tspan><tspan class="cls-13" x="24.08" y="0">f</tspan><tspan x="30.15" y="0">er</tspan><tspan class="cls-12" x="44.92" y="0">r</tspan><tspan x="50.97" y="0">ed</tspan></text><text class="cls-11" transform="translate(562.91 298.84)">24 hours</text></svg>