<svg id="Layer_1" data-name="Layer 1" xmlns="http://www.w3.org/2000/svg" viewBox="0 0 784.69 549.28"><defs><style>.cls-1{fill:#a7d290;}.cls-2{fill:#00a0e8;}.cls-2,.cls-3,.cls-5,.cls-8{fill-rule:evenodd;}.cls-3,.cls-4{fill:#a6d190;}.cls-5,.cls-6{fill:#fff;}.cls-7{fill:#eeeeef;}.cls-8,.cls-9{fill:#888;}.cls-10{fill:#f84a00;}</style></defs><title>map</title><rect class="cls-1" width="784.69" height="549.28"/><path class="cls-2" d="M.16.36H484.63c-7.93,36.55-40.71,77.73-68.24,95.75C377.54,121.54,321,134.25,281.47,135c-33.84.6-226.4-25.16-281.31-32.61Z" transform="translate(-0.16 -0.36)"/><path class="cls-3" d="M.16,374.08V149.57l331.91,159.5-1.82,184.48L171,486.07s6.39-48.69-10.08-76.77-46.71-34.68-46.71-34.68Z" transform="translate(-0.16 -0.36)"/><polygon class="cls-3" points="0 0 449.37 0 430.46 40.89 389.4 77.69 283.94 98.93 72.31 81.23 0 69.75 0 0"/><circle class="cls-4" cx="648.81" cy="140.33" r="59.58"/><path class="cls-5" d="M321,306l-1.41,186.86,21.23,1.46s.9-192.87,1.33-186.79S321,306,321,306Z" transform="translate(-0.16 -0.36)"/><path class="cls-5" d="M437,.36h25.08c-7.32,21-28.71,67.33-80.29,90.43-67.94,30.44-135.89,21.94-135.89,21.94S41.11,88.73.16,83.36V60.85C34.8,64.82,242.71,91.5,265,91.5c24.06,0,92.72-7.08,123.86-29.73S437,.36,437,.36Z" transform="translate(-0.16 -0.36)"/><path class="cls-5" d="M478.74,201.21c-1.83-4.07-98.38-119.62-98.38-119.62l-21.23,5.66s105.12,125.39,99.79,123.87S478.74,201.21,478.74,201.21Z" transform="translate(-0.16 -0.36)"/><path class="cls-5" d="M629,.36h19.14c.67,20.68,2.44,74.2,2.58,68.49.17-7.06-17.7,6.37-17.7,6.37Z" transform="translate(-0.16 -0.36)"/><polygon class="cls-5" points="784.69 124.07 784.69 144.19 718.53 139.98 725.33 120.93 784.69 124.07"/><path class="cls-5" d="M603.49,549.64H584.65c2.35-21.07,13.17-102.55,13.17-102.55l19.65-10.89C618.63,439.91,606.86,527.78,603.49,549.64Z" transform="translate(-0.16 -0.36)"/><path class="cls-5" d="M579.25,143.17,456.8,198.38s-27.95,98.55-28.31,93.43,22.65,1.41,22.65,1.41l24.77-82.1L582.79,163Z" transform="translate(-0.16 -0.36)"/><polygon class="cls-5" points="636.42 210.76 639.26 280.83 663.49 291.78 659.78 202.97 636.42 210.76"/><path class="cls-5" d="M158.11,479.37c.13-4.27,4.25-27.6-4.24-52.38s-33.27-38.92-33.27-38.92l20.08-9.74s32.3,22.48,38,52.2-1.42,58.75-1.42,58.75Z" transform="translate(-0.16 -0.36)"/><path class="cls-5" d="M150.09,549.64H128.7c1.13-17.81,3.44-54.39,3.62-59.65l22.65-.71Z" transform="translate(-0.16 -0.36)"/><polygon class="cls-5" points="588.29 284.37 617.31 427.34 597.5 433 566.35 285.08 588.29 284.37"/><polygon class="cls-5" points="784.69 365.62 784.69 388.27 410.64 505.2 0 491.47 0 469.86 410.64 482.55 784.69 365.62"/><polygon class="cls-5" points="0 387.71 0 366.47 121.15 366.47 181.31 234.12 201.84 245.44 136.01 387.71 0 387.71"/><polygon class="cls-5" points="784.69 261.45 784.69 283.25 326.41 315.51 0 159.67 0 134.59 334.2 292.86 784.69 261.45"/><path class="cls-5" d="M649,61.77a78.92,78.92,0,1,1-78.92,78.92A78.92,78.92,0,0,1,649,61.77ZM649,83a57.69,57.69,0,1,0,57.68,57.68A57.68,57.68,0,0,0,649,83Z" transform="translate(-0.16 -0.36)"/><rect class="cls-6" x="331.57" y="343.65" width="255.62" height="7.1"/><rect class="cls-6" x="507.37" y="296.36" width="5.65" height="54.39"/><polygon class="cls-5" points="433.5 299.23 439.63 300.89 406.32 492.52 400.19 490.86 433.5 299.23"/><path class="cls-5" d="M767.5,426.34V392.91l-7.31.14v33.12A32.92,32.92,0,0,1,727.37,459H611.75v7.48H727.37A40.25,40.25,0,0,0,767.5,426.34Z" transform="translate(-0.16 -0.36)"/><path class="cls-5" d="M767.5,426.34V392.91l-7.31.14v33.12A32.92,32.92,0,0,1,727.37,459H611.75v7.48H727.37A40.25,40.25,0,0,0,767.5,426.34Z" transform="translate(-0.16 -0.36)"/><rect class="cls-6" x="485.37" y="345.14" width="7.24" height="120.24"/><polygon class="cls-5" points="649.96 247.38 524.33 247.38 469.68 230.89 458.63 217.95 526.44 239.14 646.52 239.14 649.96 247.38"/><rect class="cls-6" x="573.77" y="244.57" width="7.09" height="37.23"/><rect class="cls-6" x="57.43" y="382.53" width="6.36" height="99.6"/><rect class="cls-6" y="419.97" width="63.78" height="7.06"/><rect class="cls-6" x="111.89" y="392.17" width="6.21" height="107.72" transform="translate(-340.36 516.15) rotate(-84.34)"/><path class="cls-5" d="M251.51,222.22v40.47l8.85-.17V222.43a39.83,39.83,0,0,1,39.72-39.72H440v-9.06H300.08A48.72,48.72,0,0,0,251.51,222.22Z" transform="translate(-0.16 -0.36)"/><rect class="cls-6" x="453.58" y="347.01" width="6.54" height="65.22" transform="translate(-11.77 744.46) rotate(-77.66)"/><rect class="cls-6" x="81.29" y="150.09" width="124.79" height="7.29" transform="translate(-50.3 235.26) rotate(-69.84)"/><rect class="cls-6" x="640.17" y="23.04" width="144.52" height="7.06"/><rect class="cls-6" y="302.71" width="160.55" height="7.77"/><rect class="cls-6" x="89.92" y="308.8" width="7.06" height="63.69"/><rect class="cls-7" x="286.99" y="496.25" width="6.36" height="53.03"/><rect class="cls-6" x="684.93" y="462.35" width="7.77" height="86.93"/><rect class="cls-6" x="651.37" y="286.3" width="7.16" height="132.96"/><polygon class="cls-8" points="351.27 321.08 398.59 317.55 398.59 333.79 351.98 333.79 351.27 321.08"/><polygon class="cls-8" points="564.59 324.61 563.17 306.25 525.74 309.78 525.74 323.2 564.59 324.61"/><circle class="cls-9" cx="648.97" cy="140.69" r="17.31" transform="translate(90.44 499.74) rotate(-45)"/><rect class="cls-9" x="80.03" y="281.52" width="45.91" height="15.54"/><rect class="cls-9" x="40.47" y="316.13" width="40.97" height="14.83"/><rect class="cls-9" x="652.17" y="470.12" width="26.14" height="16.95"/><rect class="cls-9" x="665.24" y="496.96" width="13.07" height="28.25"/><rect class="cls-6" x="112.52" width="9.18" height="80.21"/><rect class="cls-6" x="102.12" y="442.42" width="6.16" height="38.71"/><rect class="cls-6" x="743.29" y="23.04" width="8.31" height="109.52"/><rect class="cls-6" x="760.95" y="132.48" width="6.36" height="139.86"/><rect class="cls-6" y="20.17" width="121.7" height="7.77"/><rect class="cls-6" x="146.34" y="381.74" width="207.83" height="7.17" transform="translate(-185.45 531.26) rotate(-75.56)"/><path d="M487.56,118.41h-3.51V114.9a1.43,1.43,0,0,0-1.43-1.43h-8a1.43,1.43,0,0,0-1.43,1.43v3.51h-3.5a1.42,1.42,0,0,0-1.43,1.43v8a1.43,1.43,0,0,0,1.43,1.43h3.5v3.5a1.44,1.44,0,0,0,1.43,1.44h8a1.44,1.44,0,0,0,1.43-1.44v-3.5h3.51a1.43,1.43,0,0,0,1.43-1.43v-8A1.43,1.43,0,0,0,487.56,118.41Zm-1.43,8h-4.94v4.93H476v-4.93h-4.93v-5.15H476v-4.94h5.15v4.94h4.94Z" transform="translate(-0.16 -0.36)"/><path d="M532.92,154.34h-6.31V126.86a1.43,1.43,0,0,0-1.43-1.44H497.7V105.07a1.44,1.44,0,0,0-1.44-1.43H461a1.43,1.43,0,0,0-1.43,1.43v49.27h-6.78a1.44,1.44,0,0,0,0,2.87h7.75l.23,0a.85.85,0,0,0,.23,0h42.52a1.43,1.43,0,0,0,1.43-1.44v-13h11.6v13a1.43,1.43,0,0,0,1.43,1.44h15a1.44,1.44,0,0,0,0-2.87ZM462.4,106.5h32.43v47.84H462.4ZM518,139.88H503.49a1.43,1.43,0,0,0-1.43,1.44v13H497.7V128.29h26.05v26.05h-4.37v-13A1.44,1.44,0,0,0,518,139.88Z" transform="translate(-0.16 -0.36)"/><path d="M195.56,344.41h-3.51V340.9a1.43,1.43,0,0,0-1.43-1.43h-8a1.43,1.43,0,0,0-1.43,1.43v3.51h-3.5a1.42,1.42,0,0,0-1.43,1.43v8a1.43,1.43,0,0,0,1.43,1.43h3.5v3.5a1.44,1.44,0,0,0,1.43,1.44h8a1.44,1.44,0,0,0,1.43-1.44v-3.5h3.51a1.43,1.43,0,0,0,1.43-1.43v-8A1.43,1.43,0,0,0,195.56,344.41Zm-1.43,8h-4.94v4.93H184v-4.93h-4.93v-5.15H184v-4.94h5.15v4.94h4.94Z" transform="translate(-0.16 -0.36)"/><path d="M240.92,380.34h-6.31V352.86a1.43,1.43,0,0,0-1.43-1.44H205.7V331.07a1.44,1.44,0,0,0-1.44-1.43H169a1.43,1.43,0,0,0-1.43,1.43v49.27h-6.78a1.44,1.44,0,0,0,0,2.87h7.75l.23,0a.85.85,0,0,0,.23,0h42.52a1.43,1.43,0,0,0,1.43-1.44v-13h11.6v13a1.43,1.43,0,0,0,1.43,1.44h15a1.44,1.44,0,0,0,0-2.87ZM170.4,332.5h32.43v47.84H170.4ZM226,365.88H211.49a1.43,1.43,0,0,0-1.43,1.44v13H205.7v-26h26.05v26h-4.37v-13A1.44,1.44,0,0,0,226,365.88Z" transform="translate(-0.16 -0.36)"/><path d="M536.56,380.41h-3.51V376.9a1.43,1.43,0,0,0-1.43-1.43h-8a1.43,1.43,0,0,0-1.43,1.43v3.51h-3.5a1.42,1.42,0,0,0-1.43,1.43v8a1.43,1.43,0,0,0,1.43,1.43h3.5v3.5a1.44,1.44,0,0,0,1.43,1.44h8a1.44,1.44,0,0,0,1.43-1.44v-3.5h3.51a1.43,1.43,0,0,0,1.43-1.43v-8A1.43,1.43,0,0,0,536.56,380.41Zm-1.43,8h-4.94v4.93H525v-4.93h-4.93v-5.15H525v-4.94h5.15v4.94h4.94Z" transform="translate(-0.16 -0.36)"/><path d="M581.92,416.34h-6.31V388.86a1.43,1.43,0,0,0-1.43-1.44H546.7V367.07a1.44,1.44,0,0,0-1.44-1.43H510a1.43,1.43,0,0,0-1.43,1.43v49.27h-6.78a1.44,1.44,0,0,0,0,2.87h7.75l.23,0a.85.85,0,0,0,.23,0h42.52a1.43,1.43,0,0,0,1.43-1.44v-13h11.6v13a1.43,1.43,0,0,0,1.43,1.44h15a1.44,1.44,0,0,0,0-2.87ZM511.4,368.5h32.43v47.84H511.4ZM567,401.88H552.49a1.43,1.43,0,0,0-1.43,1.44v13H546.7v-26h26v26h-4.37v-13A1.44,1.44,0,0,0,567,401.88Z" transform="translate(-0.16 -0.36)"/><path d="M329.09,275h89.75v-7.11h-6V239.39c0-3.93-6.24-3.93-6.24,0v1.19h-1.52v-1.19c0-3.93-6.24-3.93-6.24,0v1.19h-5V224.23h.79v-2.68h.82V216.5H384.93v5.05h.82v2.68h.79v16.92h-9.61l-2.19-12.76V212.63H362.8v15.76l-2.19,12.76h-4.83l-2.19-12.76V206.12H341.64v22.27l-2.19,12.76h-4.39v26.78h-6V275Zm76.21-7.11h-14v-5.09c0-9.26,14-9.26,14,0v5.09ZM341.64,204.4v-3.27h11.95v3.27Zm21.16,6.51v-3.27h11.94v3.27Zm43.84,30.81v2.72h-1.52v-2.72Zm-7.76,0v2.72h-5v-2.72Zm7.76,3.87v4.23h-1.52v-4.23Zm-7.76,0v4.23h-5v-4.23Zm-46.49,7.92h-7.34v-7.35h7.34v7.35Zm0,10.86h-7.34V257h7.34v7.34Zm31.45,0H376.5V257h7.34v7.34Zm-10.48,0H366V257h7.35v7.34Zm-10.49,0h-7.34V257h7.34v7.34Zm21-10.86H376.5v-7.35h7.34v7.35Zm-10.48,0H366v-7.35h7.35v7.35Zm-10.49,0h-7.34v-7.35h7.34Z" transform="translate(-0.16 -0.36)"/><path d="M274.56,37.41h-3.51V33.9a1.43,1.43,0,0,0-1.43-1.43h-8a1.43,1.43,0,0,0-1.43,1.43v3.51h-3.5a1.42,1.42,0,0,0-1.43,1.43v8a1.43,1.43,0,0,0,1.43,1.43h3.5v3.5a1.44,1.44,0,0,0,1.43,1.44h8a1.44,1.44,0,0,0,1.43-1.44v-3.5h3.51A1.43,1.43,0,0,0,276,46.85v-8A1.43,1.43,0,0,0,274.56,37.41Zm-1.43,8h-4.94v4.93H263V45.42h-4.93V40.27H263V35.33h5.15v4.94h4.94Z" transform="translate(-0.16 -0.36)"/><path d="M319.92,73.34h-6.31V45.86a1.43,1.43,0,0,0-1.43-1.44H284.7V24.07a1.44,1.44,0,0,0-1.44-1.43H248a1.43,1.43,0,0,0-1.43,1.43V73.34h-6.78a1.44,1.44,0,0,0,0,2.87h7.75l.23,0a.85.85,0,0,0,.23,0h42.52a1.43,1.43,0,0,0,1.43-1.44v-13h11.6v13A1.43,1.43,0,0,0,305,76.21h15a1.44,1.44,0,0,0,0-2.87ZM249.4,25.5h32.43V73.34H249.4ZM305,58.88H290.49a1.43,1.43,0,0,0-1.43,1.44v13H284.7V47.29h26.05V73.34h-4.37v-13A1.44,1.44,0,0,0,305,58.88Z" transform="translate(-0.16 -0.36)"/><g id="Layer_2" data-name="Layer 2"><g id="Layer_1-2" data-name="Layer 1-2"><rect class="cls-10" x="196.61" y="176.02" width="35.17" height="30.62"/><rect class="cls-10" x="167.61" y="154.52" width="35.17" height="50.67"/><path d="M194.3,168.18h-3.5v-3.5a1.43,1.43,0,0,0-1.43-1.43h-8a1.43,1.43,0,0,0-1.43,1.43h0v3.5h-3.52a1.43,1.43,0,0,0-1.43,1.43h0v8a1.43,1.43,0,0,0,1.43,1.43h3.51v3.5a1.43,1.43,0,0,0,1.43,1.43h8a1.43,1.43,0,0,0,1.43-1.43V179h3.5a1.43,1.43,0,0,0,1.43-1.43h0v-8A1.43,1.43,0,0,0,194.3,168.18Zm-1.43,8h-4.93v4.94h-5.15v-4.93h-4.94V171h4.94v-4.93h5.15V171h4.93Z" transform="translate(-0.16 -0.36)"/><path d="M239.67,204.12h-6.31V176.63a1.43,1.43,0,0,0-1.43-1.43H204.44V154.85a1.43,1.43,0,0,0-1.43-1.43h-35.3a1.43,1.43,0,0,0-1.43,1.43h0v49.27h-6.77a1.43,1.43,0,0,0,0,2.86h50.73a1.43,1.43,0,0,0,1.43-1.43h0v-13h11.6v13A1.43,1.43,0,0,0,224.7,207h15a1.43,1.43,0,0,0,0-2.86Zm-70.53-47.84h32.44v47.84H169.14Zm55.56,33.38H210.24a1.43,1.43,0,0,0-1.43,1.43h0v13h-4.37v-26H230.5v26.06h-4.37v-13a1.43,1.43,0,0,0-1.4-1.46Z" transform="translate(-0.16 -0.36)"/></g></g><g id="Layer_2-2" data-name="Layer 2"><g id="Layer_1-2-2" data-name="Layer 1-2"><rect class="cls-10" x="723.94" y="319.02" width="35.17" height="30.62"/><rect class="cls-10" x="694.94" y="297.52" width="35.17" height="50.67"/><path d="M721.64,311.18h-3.5v-3.5a1.43,1.43,0,0,0-1.43-1.43h-8a1.43,1.43,0,0,0-1.43,1.43h0v3.5h-3.52a1.43,1.43,0,0,0-1.43,1.43h0v8a1.43,1.43,0,0,0,1.43,1.43h3.51v3.5A1.43,1.43,0,0,0,708.7,327h8a1.43,1.43,0,0,0,1.43-1.43V322h3.5a1.43,1.43,0,0,0,1.43-1.43h0v-8A1.44,1.44,0,0,0,721.64,311.18Zm-1.43,8h-4.93v4.94h-5.15v-4.93h-4.94V314h4.94v-4.93h5.15V314h4.93Z" transform="translate(-0.16 -0.36)"/><path d="M767,347.12H760.7V319.63a1.43,1.43,0,0,0-1.43-1.43H731.78V297.85a1.43,1.43,0,0,0-1.43-1.43h-35.3a1.43,1.43,0,0,0-1.43,1.43h0v49.27h-6.77a1.43,1.43,0,0,0,0,2.86h50.73a1.43,1.43,0,0,0,1.43-1.43h0v-13h11.6v13A1.43,1.43,0,0,0,752,350h15a1.43,1.43,0,1,0,0-2.86Zm-70.53-47.84h32.44v47.84H696.48ZM752,332.66H737.58a1.43,1.43,0,0,0-1.43,1.43h0v13h-4.37v-26h26.06v26.06h-4.37v-13a1.44,1.44,0,0,0-1.4-1.46Z" transform="translate(-0.16 -0.36)"/></g></g><path d="M162.85,135.81a7.72,7.72,0,0,1,4.28,1,3.54,3.54,0,0,1,1.5,3.21,3.61,3.61,0,0,1-1.51,3.25,7.8,7.8,0,0,1-4.32,1h-.88v4.17h-2.81V136.13a16.28,16.28,0,0,1,1.94-.25C161.73,135.83,162.33,135.81,162.85,135.81Zm.18,2.39-.6,0-.51,0v3.6h.88a4.82,4.82,0,0,0,2.19-.39,1.54,1.54,0,0,0,.74-1.48,1.71,1.71,0,0,0-.19-.86,1.36,1.36,0,0,0-.54-.55,2.5,2.5,0,0,0-.85-.29A7.66,7.66,0,0,0,163,138.2Z" transform="translate(-0.16 -0.36)"/><path d="M176.22,141.33l-.84-.19a5.76,5.76,0,0,0-1-.1,5.15,5.15,0,0,0-.6.05,3.14,3.14,0,0,0-.53.1v7.23h-2.68v-9a15.83,15.83,0,0,1,1.7-.48,9.78,9.78,0,0,1,2.19-.22l.52,0c.2,0,.41,0,.61.07s.41.06.61.11a2.52,2.52,0,0,1,.52.15Z" transform="translate(-0.16 -0.36)"/><path d="M177.48,143.76a5.72,5.72,0,0,1,.39-2.2,4.79,4.79,0,0,1,1-1.58,4.1,4.1,0,0,1,1.45-.95,4.41,4.41,0,0,1,1.68-.33,4.21,4.21,0,0,1,3.19,1.24,5.07,5.07,0,0,1,1.17,3.62c0,.16,0,.33,0,.52s0,.35,0,.49h-6.08a1.8,1.8,0,0,0,.77,1.32,3.16,3.16,0,0,0,1.84.48,7.82,7.82,0,0,0,1.45-.13,5.06,5.06,0,0,0,1.16-.34l.36,2.18a4,4,0,0,1-.58.22c-.24.07-.5.13-.8.19s-.61.1-.94.13a8.68,8.68,0,0,1-1,.06,6,6,0,0,1-2.22-.38,4.27,4.27,0,0,1-1.57-1,4.1,4.1,0,0,1-.92-1.55A6.13,6.13,0,0,1,177.48,143.76Zm6.3-1a3,3,0,0,0-.11-.67,1.71,1.71,0,0,0-.31-.58,1.78,1.78,0,0,0-.52-.41,1.67,1.67,0,0,0-.78-.16,1.87,1.87,0,0,0-.78.15,1.68,1.68,0,0,0-.54.41,1.94,1.94,0,0,0-.33.58,3.22,3.22,0,0,0-.17.68Z" transform="translate(-0.16 -0.36)"/><path d="M192.55,134.46a6.28,6.28,0,0,1,2.36.45l-.52,2.14a3.17,3.17,0,0,0-.79-.24,3.74,3.74,0,0,0-.78-.09,2.19,2.19,0,0,0-.82.14,1.26,1.26,0,0,0-.52.37,1.28,1.28,0,0,0-.27.56,3.06,3.06,0,0,0-.08.7V139h3.31v2.23h-3.31v7.23h-2.68v-10a3.67,3.67,0,0,1,4.1-4Z" transform="translate(-0.16 -0.36)"/><path d="M195.45,143.76a5.72,5.72,0,0,1,.39-2.2,4.62,4.62,0,0,1,1-1.58,4.19,4.19,0,0,1,1.45-.95,4.5,4.5,0,0,1,1.69-.33,4.19,4.19,0,0,1,3.18,1.24,5.07,5.07,0,0,1,1.17,3.62c0,.16,0,.33,0,.52s0,.35,0,.49H198.2a1.78,1.78,0,0,0,.78,1.32,3.1,3.1,0,0,0,1.83.48,7.67,7.67,0,0,0,1.45-.13,4.91,4.91,0,0,0,1.16-.34l.36,2.18a3.42,3.42,0,0,1-.57.22c-.24.07-.51.13-.8.19s-.61.1-.95.13a8.43,8.43,0,0,1-1,.06,6,6,0,0,1-2.22-.38,4.36,4.36,0,0,1-1.57-1,4,4,0,0,1-.91-1.55A6.13,6.13,0,0,1,195.45,143.76Zm6.3-1a2.55,2.55,0,0,0-.12-.67,1.68,1.68,0,0,0-.3-.58,1.83,1.83,0,0,0-.53-.41,1.67,1.67,0,0,0-.78-.16,1.79,1.79,0,0,0-.77.15,1.49,1.49,0,0,0-.54.41,1.77,1.77,0,0,0-.34.58,5.2,5.2,0,0,0-.17.68Z" transform="translate(-0.16 -0.36)"/><path d="M212.12,141.33l-.85-.19a5.65,5.65,0,0,0-1-.1,5.13,5.13,0,0,0-.61.05,3.14,3.14,0,0,0-.53.1v7.23h-2.68v-9a15.83,15.83,0,0,1,1.7-.48,9.84,9.84,0,0,1,2.19-.22l.52,0c.2,0,.41,0,.61.07a6,6,0,0,1,.61.11,2.83,2.83,0,0,1,.53.15Z" transform="translate(-0.16 -0.36)"/><path d="M219.71,141.33l-.84-.19a5.85,5.85,0,0,0-1.05-.1,4.83,4.83,0,0,0-.6.05,3.14,3.14,0,0,0-.53.1v7.23H214v-9a15.2,15.2,0,0,1,1.7-.48,9.78,9.78,0,0,1,2.19-.22l.52,0c.2,0,.4,0,.61.07s.41.06.61.11a2.52,2.52,0,0,1,.52.15Z" transform="translate(-0.16 -0.36)"/><path d="M221,143.76a5.72,5.72,0,0,1,.39-2.2,4.79,4.79,0,0,1,1-1.58,4.1,4.1,0,0,1,1.45-.95,4.41,4.41,0,0,1,1.68-.33,4.21,4.21,0,0,1,3.19,1.24,5.07,5.07,0,0,1,1.17,3.62c0,.16,0,.33,0,.52s0,.35,0,.49h-6.08a1.77,1.77,0,0,0,.77,1.32,3.16,3.16,0,0,0,1.84.48,7.82,7.82,0,0,0,1.45-.13,5.06,5.06,0,0,0,1.16-.34l.36,2.18a4,4,0,0,1-.58.22c-.24.07-.51.13-.8.19s-.61.1-1,.13a8.39,8.39,0,0,1-1,.06,6.05,6.05,0,0,1-2.23-.38,4.23,4.23,0,0,1-1.56-1,4,4,0,0,1-.92-1.55A6.13,6.13,0,0,1,221,143.76Zm6.3-1a3,3,0,0,0-.11-.67,1.71,1.71,0,0,0-.31-.58,1.78,1.78,0,0,0-.52-.41,1.68,1.68,0,0,0-.79-.16,1.86,1.86,0,0,0-.77.15,1.68,1.68,0,0,0-.54.41,1.94,1.94,0,0,0-.33.58,3.22,3.22,0,0,0-.17.68Z" transform="translate(-0.16 -0.36)"/><path d="M240.29,148.12l-.83.21-1,.17-1,.11c-.35,0-.69,0-1,0a6.15,6.15,0,0,1-2.09-.34,4.08,4.08,0,0,1-2.51-2.53,6,6,0,0,1-.34-2,7,7,0,0,1,.29-2.07,4.48,4.48,0,0,1,.83-1.58,3.59,3.59,0,0,1,1.32-1,4.43,4.43,0,0,1,1.79-.34,3.78,3.78,0,0,1,1,.11,5.18,5.18,0,0,1,.89.3v-4.28l2.69-.43Zm-6.07-4.5a3.31,3.31,0,0,0,.56,2,1.92,1.92,0,0,0,1.65.75l.67,0a4.29,4.29,0,0,0,.5-.07V141.4a2.71,2.71,0,0,0-.65-.27,3.29,3.29,0,0,0-.82-.1C234.86,141,234.22,141.89,234.22,143.62Z" transform="translate(-0.16 -0.36)"/><path d="M699.26,357.56a3.27,3.27,0,0,1-.27,1.31,6.5,6.5,0,0,1-.7,1.22,10.2,10.2,0,0,1-1,1.12c-.36.36-.71.71-1.06,1l-.58.57c-.21.21-.42.42-.61.64s-.36.41-.51.6a1.65,1.65,0,0,0-.28.46h5.36v2.25h-8.31a2.39,2.39,0,0,1,0-.51v-.43a4.48,4.48,0,0,1,.28-1.58,6,6,0,0,1,.73-1.34,8,8,0,0,1,1-1.16l1.12-1.08.81-.79a6.29,6.29,0,0,0,.67-.72,3.44,3.44,0,0,0,.45-.7,1.63,1.63,0,0,0,.16-.71,1.29,1.29,0,0,0-.45-1.12,1.89,1.89,0,0,0-1.11-.32,2.67,2.67,0,0,0-.91.15,4.3,4.3,0,0,0-.78.36,5.19,5.19,0,0,0-.6.42l-.38.33L691,355.69a6.94,6.94,0,0,1,1.84-1.22,5.58,5.58,0,0,1,2.26-.47,6.23,6.23,0,0,1,1.89.25,3.5,3.5,0,0,1,1.31.71,2.71,2.71,0,0,1,.75,1.12A4,4,0,0,1,699.26,357.56Z" transform="translate(-0.16 -0.36)"/><path d="M708.92,354.28v7.49h1.33V364h-1.33v2.79h-2.63V364h-5.38v-2q.4-.79,1-1.8c.4-.66.84-1.34,1.33-2s1-1.39,1.53-2.06a22.89,22.89,0,0,1,1.62-1.82Zm-2.63,3.28-1.49,2a13.79,13.79,0,0,0-1.33,2.21h2.82Z" transform="translate(-0.16 -0.36)"/><path d="M716.36,366.76V353.22l2.68-.43v4.54a5,5,0,0,1,.69-.17,4,4,0,0,1,.82-.09,5.06,5.06,0,0,1,1.92.32,3,3,0,0,1,1.22.89,3.42,3.42,0,0,1,.65,1.37,7.36,7.36,0,0,1,.19,1.76v5.35h-2.68v-5a3.6,3.6,0,0,0-.34-1.84,1.32,1.32,0,0,0-1.23-.54,3.55,3.55,0,0,0-.67.06c-.21,0-.4.09-.57.14v7.2Z" transform="translate(-0.16 -0.36)"/><path d="M735.81,362a6.06,6.06,0,0,1-.32,2,4.37,4.37,0,0,1-.94,1.58,4.09,4.09,0,0,1-1.46,1,4.9,4.9,0,0,1-1.92.36,4.84,4.84,0,0,1-1.9-.36,4.22,4.22,0,0,1-1.47-1,4.69,4.69,0,0,1-.95-1.58,5.82,5.82,0,0,1-.34-2,5.74,5.74,0,0,1,.35-2,4.58,4.58,0,0,1,1-1.56,4.33,4.33,0,0,1,1.48-1,4.74,4.74,0,0,1,1.86-.36,4.81,4.81,0,0,1,1.88.36,4.2,4.2,0,0,1,1.47,1,4.54,4.54,0,0,1,1,1.56A5.74,5.74,0,0,1,735.81,362Zm-2.73,0a3.4,3.4,0,0,0-.5-2,1.62,1.62,0,0,0-1.41-.71,1.64,1.64,0,0,0-1.42.71,3.33,3.33,0,0,0-.51,2,3.4,3.4,0,0,0,.51,2,1.64,1.64,0,0,0,1.42.73,1.62,1.62,0,0,0,1.41-.73A3.48,3.48,0,0,0,733.08,362Z" transform="translate(-0.16 -0.36)"/><path d="M746,366.43a13.08,13.08,0,0,1-1.77.37,13.76,13.76,0,0,1-2.27.17,5.27,5.27,0,0,1-2-.32,3,3,0,0,1-1.27-.91,3.53,3.53,0,0,1-.67-1.39,7.66,7.66,0,0,1-.2-1.79v-5.27h2.69v4.95a3.81,3.81,0,0,0,.34,1.87,1.35,1.35,0,0,0,1.28.58l.61,0,.57-.06v-7.31H746Z" transform="translate(-0.16 -0.36)"/><path d="M754.19,359.67c-.24-.06-.52-.13-.84-.19a5.06,5.06,0,0,0-1.05-.1,4.76,4.76,0,0,0-1.13.14v7.24h-2.68v-9c.48-.16,1-.32,1.7-.47a9.75,9.75,0,0,1,2.19-.23l.52,0,.61.07.61.11a2.72,2.72,0,0,1,.52.15Z" transform="translate(-0.16 -0.36)"/><path d="M758.8,364.83a2.78,2.78,0,0,0,1-.14.55.55,0,0,0,.31-.56.67.67,0,0,0-.4-.57,8,8,0,0,0-1.2-.55,10.3,10.3,0,0,1-1.14-.48,3.2,3.2,0,0,1-.88-.61,2.53,2.53,0,0,1-.56-.83,3.19,3.19,0,0,1-.19-1.17,2.54,2.54,0,0,1,1-2.11,4.32,4.32,0,0,1,2.71-.77,8.91,8.91,0,0,1,1.66.15,7.44,7.44,0,0,1,1.26.33l-.47,2.09c-.31-.11-.65-.2-1-.29a5.86,5.86,0,0,0-1.24-.12c-.84,0-1.26.23-1.26.7a.68.68,0,0,0,.06.29.57.57,0,0,0,.21.24,3.27,3.27,0,0,0,.44.25,7.62,7.62,0,0,0,.71.3,11.08,11.08,0,0,1,1.46.65,3.42,3.42,0,0,1,.91.68,2.19,2.19,0,0,1,.47.82,3.65,3.65,0,0,1,.13,1,2.4,2.4,0,0,1-1,2.12,5.23,5.23,0,0,1-3,.72,8.16,8.16,0,0,1-2.09-.22,7.76,7.76,0,0,1-1.17-.36l.45-2.17a8.77,8.77,0,0,0,1.41.42A6.92,6.92,0,0,0,758.8,364.83Z" transform="translate(-0.16 -0.36)"/></svg>