<svg fill="#0052A1" xmlns="http://www.w3.org/2000/svg" xmlns:xlink="http://www.w3.org/1999/xlink" version="1.1" x="0px" y="0px" viewBox="0 0 100 100" enable-background="new 0 0 100 100" xml:space="preserve"><g><path fill="#0052A1" d="M43.941,22.008c-2.311,0-4.227,1.927-4.227,4.25v12.154c0,2.323,1.917,4.222,4.227,4.222h5.27v6.602H27.879   c-2.311,0-4.199,1.898-4.199,4.222v3.91h-5.27c-2.311,0-4.199,1.897-4.199,4.221v12.184c0,2.323,1.888,4.221,4.199,4.221h12.145   c2.339,0,4.199-1.897,4.199-4.221V61.588c0-2.323-1.86-4.221-4.199-4.221h-5.297v-3.91c0-1.474,1.155-2.635,2.621-2.635h21.332   v6.545h-5.27c-2.311,0-4.227,1.897-4.227,4.221v12.184c0,2.323,1.917,4.221,4.227,4.221h12.117c2.311,0,4.227-1.897,4.227-4.221   V61.588c0-2.323-1.916-4.221-4.227-4.221h-5.27v-6.545h21.36c1.465,0,2.592,1.161,2.592,2.635v3.91h-5.297   c-2.338,0-4.199,1.897-4.199,4.221v12.184c0,2.323,1.861,4.221,4.199,4.221h12.145c2.311,0,4.199-1.897,4.199-4.221V61.588   c0-2.323-1.889-4.221-4.199-4.221h-5.24v-3.91c0-2.323-1.889-4.222-4.199-4.222h-21.36v-6.602h5.27   c2.311,0,4.227-1.898,4.227-4.222V26.258c0-2.323-1.916-4.25-4.227-4.25H43.941L43.941,22.008z M43.941,23.623h12.117   c1.465,0,2.648,1.161,2.648,2.635v12.154c0,1.474-1.184,2.635-2.648,2.635H43.941c-1.465,0-2.649-1.161-2.649-2.635V26.258   C41.292,24.784,42.476,23.623,43.941,23.623L43.941,23.623z M18.411,58.981h12.145c1.465,0,2.621,1.162,2.621,2.606v12.184   c0,1.473-1.155,2.635-2.621,2.635H18.411c-1.465,0-2.621-1.162-2.621-2.635V61.588C15.791,60.144,16.946,58.981,18.411,58.981   L18.411,58.981z M43.941,58.981h12.117c1.465,0,2.648,1.162,2.648,2.606v12.184c0,1.473-1.184,2.635-2.648,2.635H43.941   c-1.465,0-2.649-1.162-2.649-2.635V61.588C41.292,60.144,42.476,58.981,43.941,58.981L43.941,58.981z M69.443,58.981h12.145   c1.467,0,2.621,1.162,2.621,2.606v12.184c0,1.473-1.154,2.635-2.621,2.635H69.443c-1.465,0-2.621-1.162-2.621-2.635V61.588   C66.822,60.144,67.979,58.981,69.443,58.981L69.443,58.981z"></path></g></svg>